<svg width="351" height="83" viewBox="0 0 351 83" fill="none" xmlns="http://www.w3.org/2000/svg">
<g clip-path="url(#clip0_149_51)">
<path d="M226.198 63.3761H229.34V77.6204H226.198V63.3761ZM254.276 67.4785C254.178 67.3645 253.196 66.6808 251.626 66.6808C249.662 66.6808 248.189 68.2762 248.189 70.4413C248.189 72.6064 249.564 74.2018 251.626 74.2018C253.098 74.2018 254.08 73.5181 254.276 73.4041V77.2786C253.884 77.3925 252.804 77.7344 251.429 77.7344C247.895 77.7344 244.852 74.9995 244.852 70.3273C244.852 66.111 247.6 62.9203 251.429 62.9203C252.902 62.9203 253.982 63.3761 254.276 63.3761V67.4785ZM221.878 67.4785C221.78 67.3645 220.798 66.6808 219.228 66.6808C217.264 66.6808 215.791 68.2762 215.791 70.4413C215.791 72.6064 217.166 74.2018 219.228 74.2018C220.7 74.2018 221.682 73.5181 221.878 73.4041V77.2786C221.486 77.3925 220.406 77.7344 219.031 77.7344C215.595 77.7344 212.453 74.9995 212.453 70.3273C212.453 66.111 215.202 62.9203 219.031 62.9203C220.504 62.9203 221.584 63.3761 221.878 63.3761V67.4785ZM270.475 70.5552C270.475 74.6576 267.727 77.9623 263.996 77.9623C260.265 77.9623 257.516 74.6576 257.516 70.5552C257.516 66.4529 260.265 63.1482 263.996 63.1482C267.825 63.1482 270.475 66.4529 270.475 70.5552ZM263.996 66.7947C262.131 66.7947 260.756 68.5041 260.756 70.5552C260.756 72.6064 262.131 74.3157 263.996 74.3157C265.861 74.3157 267.236 72.6064 267.236 70.5552C267.236 68.5041 265.861 66.7947 263.996 66.7947ZM241.023 66.6808C241.023 66.6808 239.648 66.225 238.568 66.225C237.292 66.225 236.605 66.6808 236.605 67.3645C236.605 68.2761 237.488 68.5041 237.979 68.732L238.863 69.0738C240.826 69.8715 241.808 71.4669 241.808 73.1762C241.808 76.7088 239.059 77.9623 236.703 77.9623C235.034 77.9623 233.463 77.6204 233.365 77.6204V74.3157C233.659 74.4297 234.936 74.8855 236.31 74.8855C237.881 74.8855 238.568 74.3157 238.568 73.5181C238.568 72.8343 237.979 72.3785 237.194 72.1506C236.997 72.0366 236.703 71.9227 236.507 71.9227C234.739 71.239 233.365 70.0994 233.365 67.7064C233.365 65.0854 235.132 63.2622 237.979 63.2622C239.452 63.2622 240.924 63.718 241.023 63.718V66.6808Z" fill="#050505"/>
</g>
<path d="M204.954 64.9854V66.9408H197.882V64.9854H204.954ZM199.821 77.5V63.5352C199.821 62.753 199.992 62.1039 200.335 61.5879C200.677 61.0665 201.13 60.6781 201.695 60.4228C202.26 60.1621 202.874 60.0317 203.537 60.0317C204.025 60.0317 204.444 60.0725 204.791 60.154C205.139 60.23 205.397 60.3006 205.565 60.3658L204.995 62.3375C204.881 62.3049 204.734 62.2669 204.555 62.2234C204.376 62.1745 204.159 62.1501 203.903 62.1501C203.311 62.1501 202.887 62.2967 202.632 62.5901C202.382 62.8834 202.257 63.307 202.257 63.8611V77.5H199.821Z" fill="#050505"/>
<path d="M190.446 77.7525C189.272 77.7525 188.248 77.4837 187.374 76.9459C186.499 76.4082 185.82 75.6559 185.337 74.6891C184.854 73.7222 184.612 72.5925 184.612 71.2997C184.612 70.0015 184.854 68.8663 185.337 67.8941C185.82 66.9218 186.499 66.1668 187.374 65.6291C188.248 65.0913 189.272 64.8224 190.446 64.8224C191.619 64.8224 192.643 65.0913 193.517 65.6291C194.392 66.1668 195.071 66.9218 195.554 67.8941C196.037 68.8663 196.279 70.0015 196.279 71.2997C196.279 72.5925 196.037 73.7222 195.554 74.6891C195.071 75.6559 194.392 76.4082 193.517 76.9459C192.643 77.4837 191.619 77.7525 190.446 77.7525ZM190.454 75.7075C191.214 75.7075 191.844 75.5065 192.344 75.1046C192.844 74.7027 193.213 74.1676 193.452 73.4995C193.696 72.8314 193.819 72.0955 193.819 71.2916C193.819 70.4931 193.696 69.7598 193.452 69.0917C193.213 68.4182 192.844 67.8778 192.344 67.4704C191.844 67.063 191.214 66.8593 190.454 66.8593C189.688 66.8593 189.052 67.063 188.547 67.4704C188.047 67.8778 187.675 68.4182 187.431 69.0917C187.192 69.7598 187.072 70.4931 187.072 71.2916C187.072 72.0955 187.192 72.8314 187.431 73.4995C187.675 74.1676 188.047 74.7027 188.547 75.1046C189.052 75.5065 189.688 75.7075 190.454 75.7075Z" fill="#050505"/>
<path d="M176.407 64.9854V66.9408H169.572V64.9854H176.407ZM171.405 61.9871H173.841V73.8254C173.841 74.298 173.912 74.6538 174.053 74.8928C174.194 75.1263 174.376 75.2866 174.599 75.3735C174.827 75.4549 175.074 75.4957 175.34 75.4957C175.536 75.4957 175.707 75.4821 175.853 75.4549C176 75.4278 176.114 75.4061 176.196 75.3898L176.636 77.4022C176.494 77.4565 176.293 77.5108 176.033 77.5652C175.772 77.6249 175.446 77.6575 175.055 77.6629C174.414 77.6738 173.817 77.5597 173.262 77.3207C172.708 77.0817 172.26 76.7124 171.918 76.2127C171.576 75.713 171.405 75.0856 171.405 74.3306V61.9871Z" fill="#050505"/>
<path d="M161.021 77.5V64.9854H163.376V66.9734H163.506C163.734 66.2999 164.136 65.7703 164.712 65.3847C165.293 64.9936 165.95 64.798 166.683 64.798C166.835 64.798 167.015 64.8035 167.221 64.8143C167.433 64.8252 167.599 64.8388 167.718 64.8551V67.1853C167.62 67.1581 167.447 67.1282 167.197 67.0956C166.947 67.0576 166.697 67.0386 166.447 67.0386C165.871 67.0386 165.358 67.1608 164.907 67.4052C164.462 67.6442 164.109 67.9783 163.848 68.4074C163.587 68.8311 163.457 69.3145 163.457 69.8576V77.5H161.021Z" fill="#050505"/>
<path d="M151.6 77.777C150.807 77.777 150.09 77.6303 149.449 77.337C148.809 77.0383 148.301 76.6065 147.926 76.0416C147.557 75.4767 147.372 74.7841 147.372 73.9639C147.372 73.2578 147.508 72.6766 147.779 72.2204C148.051 71.7641 148.417 71.4029 148.879 71.1368C149.341 70.8706 149.857 70.6696 150.427 70.5338C150.997 70.3981 151.579 70.2949 152.171 70.2242C152.92 70.1373 153.529 70.0667 153.996 70.0124C154.463 69.9527 154.802 69.8576 155.014 69.7272C155.226 69.5969 155.332 69.3851 155.332 69.0917V69.0347C155.332 68.3232 155.131 67.7718 154.729 67.3808C154.333 66.9897 153.74 66.7941 152.953 66.7941C152.133 66.7941 151.486 66.9761 151.014 67.34C150.547 67.6985 150.223 68.0977 150.044 68.5377L147.755 68.0163C148.026 67.2558 148.423 66.6421 148.944 66.1749C149.471 65.7024 150.077 65.3602 150.761 65.1483C151.446 64.9311 152.165 64.8224 152.92 64.8224C153.42 64.8224 153.95 64.8822 154.509 65.0017C155.074 65.1158 155.601 65.3276 156.09 65.6372C156.584 65.9468 156.989 66.3895 157.304 66.9652C157.619 67.5356 157.776 68.277 157.776 69.1895V77.5H155.397V75.789H155.299C155.142 76.104 154.906 76.4136 154.591 76.7178C154.275 77.022 153.871 77.2746 153.377 77.4755C152.882 77.6765 152.29 77.777 151.6 77.777ZM152.13 75.8216C152.804 75.8216 153.379 75.6885 153.857 75.4224C154.341 75.1562 154.707 74.8086 154.957 74.3795C155.212 73.9449 155.34 73.4805 155.34 72.9862V71.373C155.253 71.4599 155.085 71.5414 154.835 71.6175C154.591 71.6881 154.311 71.7505 153.996 71.8049C153.681 71.8537 153.374 71.8999 153.075 71.9434C152.776 71.9814 152.526 72.014 152.326 72.0411C151.853 72.1009 151.421 72.2014 151.03 72.3426C150.644 72.4838 150.335 72.6875 150.101 72.9537C149.873 73.2144 149.759 73.562 149.759 73.9965C149.759 74.5995 149.982 75.0557 150.427 75.3653C150.873 75.6695 151.44 75.8216 152.13 75.8216Z" fill="#050505"/>
<path d="M133.798 82.1929V64.9854H136.177V67.0141H136.381C136.522 66.7534 136.726 66.4519 136.992 66.1098C137.258 65.7676 137.627 65.4688 138.1 65.2135C138.572 64.9528 139.197 64.8224 139.974 64.8224C140.984 64.8224 141.886 65.0777 142.679 65.5883C143.472 66.0989 144.094 66.8349 144.545 67.7963C145.001 68.7577 145.229 69.9146 145.229 71.2671C145.229 72.6196 145.004 73.7793 144.553 74.7461C144.102 75.7075 143.483 76.4489 142.695 76.9704C141.907 77.4864 141.009 77.7444 139.998 77.7444C139.238 77.7444 138.616 77.6167 138.132 77.3615C137.654 77.1062 137.28 76.8074 137.008 76.4652C136.737 76.123 136.527 75.8189 136.381 75.5527H136.234V82.1929H133.798ZM136.185 71.2427C136.185 72.1226 136.313 72.8939 136.568 73.5566C136.823 74.2192 137.193 74.738 137.676 75.1127C138.16 75.4821 138.752 75.6668 139.452 75.6668C140.18 75.6668 140.789 75.474 141.277 75.0883C141.766 74.6972 142.136 74.1676 142.385 73.4995C142.641 72.8314 142.768 72.0792 142.768 71.2427C142.768 70.4171 142.643 69.6756 142.394 69.0184C142.149 68.3612 141.78 67.8425 141.286 67.4622C140.797 67.082 140.186 66.8919 139.452 66.8919C138.746 66.8919 138.149 67.0739 137.66 67.4378C137.176 67.8017 136.81 68.3096 136.56 68.9614C136.31 69.6132 136.185 70.3736 136.185 71.2427Z" fill="#050505"/>
<path d="M111.506 77.5L107.824 64.9854H110.341L112.794 74.1758H112.916L115.376 64.9854H117.894L120.338 74.1351H120.461L122.897 64.9854H125.414L121.74 77.5H119.255L116.713 68.4644H116.525L113.983 77.5H111.506Z" fill="#050505"/>
<path d="M100.621 77.7525C99.4481 77.7525 98.4242 77.4837 97.5497 76.9459C96.6752 76.4082 95.9963 75.6559 95.5128 74.6891C95.0294 73.7222 94.7877 72.5925 94.7877 71.2997C94.7877 70.0015 95.0294 68.8663 95.5128 67.8941C95.9963 66.9218 96.6752 66.1668 97.5497 65.6291C98.4242 65.0913 99.4481 64.8224 100.621 64.8224C101.795 64.8224 102.818 65.0913 103.693 65.6291C104.567 66.1668 105.246 66.9218 105.73 67.8941C106.213 68.8663 106.455 70.0015 106.455 71.2997C106.455 72.5925 106.213 73.7222 105.73 74.6891C105.246 75.6559 104.567 76.4082 103.693 76.9459C102.818 77.4837 101.795 77.7525 100.621 77.7525ZM100.629 75.7075C101.39 75.7075 102.02 75.5065 102.52 75.1046C103.019 74.7027 103.389 74.1676 103.628 73.4995C103.872 72.8314 103.994 72.0955 103.994 71.2916C103.994 70.4931 103.872 69.7598 103.628 69.0917C103.389 68.4182 103.019 67.8778 102.52 67.4704C102.02 67.063 101.39 66.8593 100.629 66.8593C99.8636 66.8593 99.2281 67.063 98.723 67.4704C98.2233 67.8778 97.8512 68.4182 97.6068 69.0917C97.3678 69.7598 97.2483 70.4931 97.2483 71.2916C97.2483 72.0955 97.3678 72.8314 97.6068 73.4995C97.8512 74.1676 98.2233 74.7027 98.723 75.1046C99.2281 75.5065 99.8636 75.7075 100.629 75.7075Z" fill="#050505"/>
<path d="M84.0738 70.0694V77.5H81.6377V64.9854H83.976V67.0223H84.1308C84.4187 66.3596 84.8695 65.8273 85.4833 65.4254C86.1025 65.0234 86.882 64.8224 87.8217 64.8224C88.6744 64.8224 89.4213 65.0017 90.0622 65.3602C90.7032 65.7132 91.2002 66.2401 91.5532 66.9408C91.9063 67.6415 92.0828 68.5078 92.0828 69.5399V77.5H89.6467V69.8332C89.6467 68.9261 89.4104 68.2172 88.9379 67.7067C88.4653 67.1907 87.8162 66.9327 86.9906 66.9327C86.4257 66.9327 85.9233 67.0549 85.4833 67.2993C85.0488 67.5437 84.7039 67.9022 84.4486 68.3748C84.1987 68.8419 84.0738 69.4068 84.0738 70.0694Z" fill="#050505"/>
<path d="M20.2898 35.4662L20.0748 35.8963L20.0749 35.8964L20.075 35.8965L20.0756 35.8968L20.0774 35.8977L20.0838 35.9008L20.1071 35.9123C20.127 35.9221 20.1557 35.936 20.1913 35.953C20.2623 35.9869 20.3619 36.0335 20.4765 36.0845C20.6909 36.1797 20.9768 36.2987 21.2303 36.3742C25.1238 38.085 29.3404 38.9378 33.8091 39.0035L33.8091 39.0035H33.8162C36.5374 39.0035 38.9429 38.5388 41.0254 37.6655L41.0255 37.6657L41.0374 37.6603C43.1103 36.7241 44.7474 35.5054 45.9141 33.8583C47.0751 32.2192 47.6933 30.3668 47.6933 28.3128C47.6933 25.819 47.0179 23.8136 45.7567 22.3422L45.7568 22.3421L45.7482 22.3325C44.4705 20.9204 42.9813 19.8337 41.2146 19.1527C39.488 18.4231 37.2489 17.7664 34.5128 17.115L34.5128 17.1148L34.5012 17.1123C32.365 16.6592 30.6997 16.2096 29.4953 15.7659C28.3119 15.3299 27.3926 14.7757 26.5988 14.0429C25.8693 13.3695 25.5179 12.4666 25.5179 11.3399C25.5179 9.69927 26.2645 8.35586 27.8834 7.39653L27.8835 7.39659L27.8903 7.39238C29.4804 6.41386 31.6594 5.90298 34.3364 5.90298C37.1387 5.90298 39.8835 6.41238 42.5733 7.30898C42.7809 7.3782 43.0185 7.44596 43.2003 7.49554C43.2921 7.52056 43.3713 7.54141 43.4277 7.55603L43.4942 7.57311L43.5123 7.5777L43.5172 7.57893L43.5185 7.57927L43.5189 7.57937L43.519 7.5794L43.5191 7.57941L43.6358 7.11287L43.5191 7.57942L43.9229 7.68036L44.0807 7.29524L45.7065 3.32838L45.8279 3.03226L45.6016 2.80596L45.2615 3.14601C45.6016 2.80596 45.6008 2.80514 45.5999 2.80431L45.5983 2.8027L45.5951 2.79957L45.5888 2.79365L45.577 2.78302C45.5695 2.77647 45.5623 2.77067 45.5558 2.7656C45.5429 2.75558 45.5309 2.74719 45.5204 2.74032C45.4999 2.72688 45.4791 2.71518 45.4593 2.70476C45.4198 2.68411 45.3664 2.65954 45.2902 2.62816C45.138 2.56549 44.8681 2.46473 44.3815 2.3024C41.2012 1.11106 37.6992 0.519093 33.8162 0.519093C30.9101 0.519093 28.3636 0.980475 26.264 1.995C24.1779 2.93824 22.5419 4.29514 21.4455 6.00824C20.3549 7.71227 19.8089 9.55822 19.8089 11.665C19.8089 14.0328 20.4868 16.0427 21.8191 17.5152C23.1025 18.9337 24.6599 20.0187 26.4885 20.6973C28.2711 21.423 30.5678 22.1436 33.3718 22.8609L33.3718 22.861L33.3777 22.8624C35.5056 23.3783 37.1174 23.894 38.2812 24.2819C39.4069 24.6572 40.3173 25.1483 41.0347 25.806C41.7214 26.4354 42.0493 27.1545 42.0493 28.0527C42.0493 29.8909 41.3534 31.2272 39.9746 32.1292C38.561 33.0541 36.3795 33.5546 33.3609 33.5546C29.7929 33.5546 26.4221 32.8559 23.3075 31.4617C23.1187 31.3515 22.8649 31.2342 22.6701 31.1486C22.5647 31.1022 22.4701 31.0622 22.4018 31.0339C22.3676 31.0197 22.3399 31.0083 22.3205 31.0004L22.2979 30.9912L22.2917 30.9888L22.29 30.9881L22.2895 30.9879L22.2894 30.9878L22.2893 30.9878L22.1107 31.4343L22.2893 30.9878L21.8618 30.8168L21.6724 31.2363L19.8515 35.2682L19.6612 35.6896L20.0747 35.8963L20.2898 35.4662Z" fill="black" stroke="black" stroke-width="0.961814"/>
<path d="M58.9576 19.7202L58.9575 19.7288L58.9576 19.7374C59.0238 23.4431 59.8185 26.7716 61.3555 29.6452C62.8938 32.5211 65.1025 34.7956 67.9066 36.4647C70.7264 38.1431 74.0668 38.9385 77.7771 38.9385C81.4874 38.9385 84.7611 38.1431 87.5788 36.4669C90.387 34.8614 92.5962 32.5847 94.1338 29.6449C95.7352 26.7075 96.5303 23.4442 96.5965 19.7374L96.5968 19.7245L96.5963 19.7116C96.4641 16.0091 95.6694 12.7505 94.1358 9.81645L94.1336 9.81242C92.5953 6.9365 90.3867 4.662 87.5826 2.99289C84.764 1.31519 81.4891 0.519093 77.7771 0.519093C74.0668 0.519093 70.7264 1.31446 67.9066 2.99289C65.1025 4.662 62.8938 6.9365 61.3555 9.81242C59.8185 12.6859 59.0238 16.0145 58.9576 19.7202ZM89.3152 26.792L89.3151 26.7919L89.31 26.8024C88.3084 28.8681 86.8108 30.5511 84.815 31.7361C82.815 32.9236 80.4951 33.5546 77.7771 33.5546C75.0575 33.5546 72.6779 32.923 70.7497 31.7425C68.8046 30.4865 67.3039 28.8592 66.239 26.792C65.1747 24.726 64.6666 22.3331 64.6666 19.7288C64.6666 17.1245 65.1747 14.7316 66.239 12.6656C67.3081 10.5903 68.8109 8.90339 70.745 7.71798C72.674 6.53565 75.0553 5.90298 77.7771 5.90298C80.4916 5.90298 82.809 6.53235 84.8073 7.71692C86.7511 8.97264 88.2508 10.5994 89.3152 12.6656C90.3795 14.7316 90.8876 17.1245 90.8876 19.7288C90.8876 22.3331 90.3795 24.726 89.3152 26.792Z" fill="black" stroke="black" stroke-width="0.961814"/>
<path d="M105.09 0.714161H104.37L104.646 1.37931L119.993 38.3817L120.116 38.6783H120.437H125.965H126.286L126.409 38.381L141.691 1.37865L141.966 0.714161H141.247H136.109H135.784L135.663 1.016L123.167 32.1615L110.608 1.01522L110.487 0.714161H110.162H105.09Z" fill="black" stroke="black" stroke-width="0.961814"/>
<path d="M152.615 38.3829L165.113 8.4897L177.61 38.3829L177.734 38.6783H178.054H183.191H183.917L183.634 38.0099L167.962 1.00751L167.838 0.714161H167.519H162.772H162.453L162.329 1.00751L146.657 38.0099L146.373 38.6783H147.099H152.172H152.492L152.615 38.3829Z" fill="black" stroke="black" stroke-width="0.961814"/>
<path d="M196.172 37.9373V38.4182H196.653H220.909H221.39V37.9373V33.1901V32.7092H220.909H201.88L201.816 1.19409L201.815 0.714161H201.335H196.653H196.172V1.19507V37.9373Z" fill="black" stroke="black" stroke-width="0.961814"/>
<path d="M233.915 0.974232H233.434V1.45514V37.3913V37.8722V37.9373H233.915V38.3531H259.472H259.953V37.8722V33.4502V32.9693H259.472H239.143V22.3556H257.586H258.067V21.8747V17.4527V16.9717H257.586H239.143V6.35812H259.472H259.953V5.87722V1.45514V0.974232H259.472H233.915Z" fill="black" stroke="black" stroke-width="0.961814"/>
<path d="M274.664 38.1974V38.6783H275.145H279.827H280.307L280.308 38.1986L280.37 11.5459L303.131 38.5077L303.275 38.6783H303.498H306.945H307.426V38.1974V1.19507V0.714161H306.945H302.197H301.717V1.19507V27.9712L278.894 0.885194L278.75 0.714161H278.526H278.521H278.516H278.51H278.505H278.499H278.494H278.488H278.483H278.477H278.471H278.466H278.46H278.454H278.448H278.442H278.437H278.431H278.425H278.419H278.413H278.407H278.401H278.395H278.388H278.382H278.376H278.37H278.364H278.357H278.351H278.345H278.338H278.332H278.326H278.319H278.313H278.306H278.3H278.293H278.286H278.28H278.273H278.266H278.26H278.253H278.246H278.239H278.232H278.226H278.219H278.212H278.205H278.198H278.191H278.184H278.177H278.17H278.163H278.156H278.148H278.141H278.134H278.127H278.12H278.112H278.105H278.098H278.09H278.083H278.076H278.068H278.061H278.053H278.046H278.038H278.031H278.023H278.016H278.008H278.001H277.993H277.985H277.978H277.97H277.962H277.955H277.947H277.939H277.931H277.923H277.916H277.908H277.9H277.892H277.884H277.876H277.868H277.86H277.852H277.844H277.836H277.828H277.82H277.812H277.804H277.796H277.788H277.78H277.772H277.763H277.755H277.747H277.739H277.731H277.722H277.714H277.706H277.698H277.689H277.681H277.673H277.664H277.656H277.648H277.639H277.631H277.622H277.614H277.605H277.597H277.589H277.58H277.572H277.563H277.555H277.546H277.538H277.529H277.52H277.512H277.503H277.495H277.486H277.478H277.469H277.46H277.452H277.443H277.434H277.426H277.417H277.408H277.4H277.391H277.382H277.374H277.365H277.356H277.347H277.339H277.33H277.321H277.312H277.304H277.295H277.286H277.277H277.268H277.26H277.251H277.242H277.233H277.224H277.216H277.207H277.198H277.189H277.18H277.171H277.163H277.154H277.145H277.136H277.127H277.118H277.11H277.101H277.092H277.083H277.074H277.065H277.056H277.047H277.039H277.03H277.021H277.012H277.003H276.994H276.985H276.976H276.968H276.959H276.95H276.941H276.932H276.923H276.914H276.906H276.897H276.888H276.879H276.87H276.861H276.852H276.844H276.835H276.826H276.817H276.808H276.799H276.79H276.782H276.773H276.764H276.755H276.746H276.738H276.729H276.72H276.711H276.703H276.694H276.685H276.676H276.667H276.659H276.65H276.641H276.633H276.624H276.615H276.606H276.598H276.589H276.58H276.572H276.563H276.554H276.546H276.537H276.529H276.52H276.511H276.503H276.494H276.486H276.477H276.468H276.46H276.451H276.443H276.434H276.426H276.417H276.409H276.401H276.392H276.384H276.375H276.367H276.358H276.35H276.342H276.333H276.325H276.317H276.308H276.3H276.292H276.284H276.275H276.267H276.259H276.251H276.242H276.234H276.226H276.218H276.21H276.202H276.194H276.186H276.178H276.17H276.161H276.153H276.145H276.138H276.13H276.122H276.114H276.106H276.098H276.09H276.082H276.074H276.067H276.059H276.051H276.043H276.036H276.028H276.02H276.013H276.005H275.997H275.99H275.982H275.975H275.967H275.96H275.952H275.945H275.937H275.93H275.922H275.915H275.908H275.9H275.893H275.886H275.879H275.871H275.864H275.857H275.85H275.843H275.836H275.829H275.822H275.814H275.807H275.801H275.794H275.787H275.78H275.773H275.766H275.759H275.752H275.746H275.739H275.732H275.726H275.719H275.712H275.706H275.699H275.693H275.686H275.68H275.673H275.667H275.66H275.654H275.648H275.641H275.635H275.629H275.623H275.617H275.611H275.604H275.598H275.592H275.586H275.58H275.574H275.568H275.563H275.557H275.551H275.545H275.539H275.534H275.528H275.522H275.517H275.511H275.506H275.5H275.495H275.489H275.484H275.478H275.473H275.468H275.463H275.457H275.452H275.447H275.442H275.437H275.432H275.427H275.422H275.417H275.412H275.407H275.402H275.398H275.393H275.388H275.383H275.379H275.374H275.37H275.365H275.361H275.356H275.352H275.348H275.343H275.339H275.335H275.331H275.327H275.322H275.318H275.314H275.31H275.306H275.303H275.299H275.295H275.291H275.287H275.284H275.28H275.277H275.273H275.27H275.266H275.263H275.259H275.256H275.253H275.25H275.246H275.243H275.24H275.237H275.234H275.231H275.228H275.225H275.223H275.22H275.217H275.214H275.212H275.209H275.207H275.204H275.202H275.199H275.197H275.195H275.192H275.19H275.188H275.186H275.184H275.182H275.18H275.178H275.176H275.174H275.173H275.171H275.169H275.168H275.166H275.165H275.163H275.162H275.161H275.159H275.158H275.157H275.156H275.155H275.154H275.153H275.152H275.151H275.15H275.149H275.149H275.148H275.148H275.147H275.147H275.146H275.146H275.145H275.145H275.145H275.145H275.145L275.145 1.19507V0.714161H274.664V1.19507V38.1974Z" fill="black" stroke="black" stroke-width="0.961814"/>
<path d="M331.11 38.1974V38.6783H331.591H336.338H336.819V38.1974V6.42318H349.214H349.695V5.94228V1.5202V1.0393H349.214H318.78H318.299V1.5202V5.94228V6.42318H318.78H331.11V38.1974Z" fill="black" stroke="black" stroke-width="0.961814"/>
<path d="M6.22814 1.19507V0.714161H5.74723H1H0.519093V1.19507V38.1974V38.6783H1H5.74723H6.22814V38.1974V1.19507Z" fill="black" stroke="black" stroke-width="0.961814"/>
<path d="M167.129 24.2159L169.015 27.4024L167.129 30.6539H163.487L161.601 27.4024L163.487 24.2159H167.129Z" fill="#0000D8"/>
<defs>
<clipPath id="clip0_149_51">
<rect width="58.9286" height="16.1498" fill="white" transform="translate(212 62.011)"/>
</clipPath>
</defs>
</svg>
