<?xml version="1.0" encoding="UTF-8"?>
<svg id="Layer_1" data-name="Layer 1" xmlns="http://www.w3.org/2000/svg" version="1.1" viewBox="0 0 551.2 144.6">
  <defs>
    <style>
      .cls-1 {
        isolation: isolate;
        opacity: .2;
      }

      .cls-1, .cls-2, .cls-3, .cls-4 {
        stroke-width: 0px;
      }

      .cls-1, .cls-4 {
        fill: #fff;
      }

      .cls-2 {
        fill: #000;
      }

      .cls-3 {
        fill: #00d15f;
      }
    </style>
  </defs>
  <polygon class="cls-2" points="339.2 47.5 316.1 71.6 316.1 47.5 308.9 47.5 308.9 100.1 316.1 100.1 316.1 73.3 339.2 100.1 348.6 100.1 324.5 72.6 348.9 47.5 339.2 47.5"/>
  <path class="cls-2" d="M378.1,65.3c-2.8-1.5-5.7-2.2-8.9-2.2s-6.5.8-9.3,2.5c-2.8,1.7-5,3.9-6.6,6.8s-2.4,6.1-2.4,9.6.8,6.8,2.3,9.7c1.5,2.9,3.6,5.1,6.3,6.7,2.6,1.6,5.6,2.4,8.9,2.4s4.1-.5,6.2-1.4,3.8-2.3,5.3-4.1c.2-.3.4-.6.6-.9l.6,5.7h6.3v-18.1c0-3.9-.8-7.2-2.5-10.1-1.6-2.9-3.9-5-6.6-6.5h0ZM378.6,88.5c-1,1.9-2.4,3.3-4,4.3-1.6,1-3.4,1.5-5.3,1.5s-4.1-.5-5.8-1.6c-1.7-1-3-2.5-4-4.4-1-1.9-1.4-4-1.4-6.4s.5-4.6,1.5-6.4c1-1.9,2.4-3.3,4.1-4.4,1.7-1,3.6-1.6,5.6-1.6s3.7.5,5.4,1.5c1.7,1,3,2.4,4,4.2,1,1.9,1.5,4.1,1.5,6.7s-.5,4.7-1.5,6.5h0Z"/>
  <path class="cls-2" d="M415.5,81.4c-1.6-.8-3.6-1.5-6-2.1-2.6-.8-4.5-1.6-5.8-2.3-1.2-.7-1.8-1.8-1.8-3.2s.5-2.5,1.5-3.3c1-.8,2.3-1.2,3.9-1.2s3.1.5,4.1,1.4c1.1.9,1.7,2.3,2,4h7.1c-.4-3.6-1.7-6.4-4.1-8.4-2.4-2-5.4-3-9.1-3s-4.9.5-6.8,1.5c-1.9,1-3.3,2.3-4.3,3.9s-1.5,3.3-1.5,5.1.5,4.3,1.7,5.7c1.1,1.4,2.5,2.5,4,3.3,1.6.8,3.6,1.5,6,2.2,2.6.8,4.6,1.5,5.8,2.3s1.9,1.9,1.9,3.4-.5,2.2-1.5,3-2.5,1.2-4.4,1.2-3.4-.5-4.8-1.6-2.1-2.5-2.3-4.3h-7.1c.1,2.4.8,4.5,2,6.3,1.2,1.8,2.9,3.2,5,4.2,2.1,1,4.5,1.5,7.1,1.5s4.7-.4,6.7-1.3c2-.9,3.5-2.1,4.7-3.7,1.1-1.6,1.7-3.3,1.7-5.3s-.5-4.4-1.7-5.8c-1.1-1.5-2.5-2.6-4.1-3.3h0Z"/>
  <path class="cls-2" d="M435.4,51.8h-7.2v36.6c0,2.5.6,4.7,1.7,6.5s2.6,3.2,4.4,4.2,4,1.4,6.4,1.4,3.1-.2,4.6-.5v-5.9c-.9,0-1.8,0-2.7,0-1.7,0-3.1-.2-4.1-.6-1.1-.4-1.8-1.1-2.4-2-.5-.9-.8-2.3-.8-4v-17.6h10.5v-6h-10.5v-12.1h0Z"/>
  <path class="cls-2" d="M477.2,65.6c-2.6-1.7-5.5-2.5-8.7-2.5s-6.6.8-9.4,2.4c-2.8,1.6-5,3.8-6.5,6.7-1.5,2.9-2.3,6.1-2.3,9.8s.8,6.9,2.4,9.8c1.6,2.9,3.8,5.1,6.5,6.7s5.9,2.4,9.4,2.4,7.4-1.1,10.3-3.2c3-2.1,5-4.9,6.1-8.4h-7.3c-.8,1.7-1.9,3-3.4,3.8s-3.4,1.3-5.7,1.3c-3.2,0-5.9-1.2-8-3.4-1.5-1.7-2.5-3.7-2.9-6.1h28.1c.1-.7.1-1.7.1-2.8,0-3.5-.8-6.7-2.3-9.6s-3.6-5.2-6.3-6.8h0ZM457.6,78.9c.4-2.3,1.4-4.2,2.8-5.8,2.1-2.3,4.7-3.4,8-3.4s3.5.5,5.1,1.4,2.7,2.2,3.6,3.8c.7,1.3,1.1,2.7,1.3,4.1h-20.8,0Z"/>
  <path class="cls-2" d="M522.2,70.6c-1.3-2.4-3.1-4.2-5.5-5.5-2.4-1.3-5.1-2-8.3-2s-5.9.7-8.3,2c-2.4,1.3-4.2,3.2-5.5,5.5-1.3,2.4-1.9,5.1-1.9,8v21.4h7.1v-20.9c0-3,.7-5.4,2.2-7.1,1.4-1.7,3.6-2.5,6.4-2.5s5,.8,6.4,2.5c1.4,1.7,2.2,4,2.2,7.1v20.9h7.1v-21.4c0-3-.6-5.7-1.9-8h0Z"/>
  <g>
    <path class="cls-3" d="M47.7,38.5l-13.2,13.2c-1.6,1.6-2.5,3.9-2.5,6.2v55.7h236.8c2.3,0,4.5-.9,6.2-2.6l13-13.1c1.6-1.6,2.5-3.9,2.5-6.2v-55.8H53.9c-2.3,0-4.5.9-6.2,2.6Z"/>
    <path class="cls-1" d="M226,35.9l-61.2,61.1c-10.6,10.6-24.9,16.5-39.9,16.5H32v-49.2h0l31.4,31.3c4.6,4.6,11.9,4.5,16.5,0l59.7-59.7h86.4Z"/>
    <path class="cls-4" d="M68.2,93.4l-17.9-37.3h8s12.8,26.7,13.1,28.1h.2c.3-1.3,13.1-28.1,13.1-28.1h8.1l-17.9,37.3h-6.8Z"/>
    <path class="cls-4" d="M127.5,77.6h-28.9c1,6.1,5.5,9.9,11.3,9.9s7.8-1.8,9.4-5.3h7.5c-2.2,7.1-8.7,12-16.9,12s-18.8-7.9-18.8-19.5,7.8-19.5,18.8-19.5,17.9,8.4,17.9,19.5,0,1.8-.2,2.9h0ZM98.6,71.6h21.4c-.5-5.1-4.6-9.6-10.3-9.6s-10.1,3.8-11.2,9.6h0Z"/>
    <path class="cls-4" d="M167.2,77.6h-28.9c1,6.1,5.5,9.9,11.3,9.9s7.8-1.8,9.4-5.3h7.5c-2.2,7.1-8.7,12-16.9,12s-18.8-7.9-18.8-19.5,7.8-19.5,18.8-19.5,17.9,8.4,17.9,19.5,0,1.8-.2,2.9h0ZM138.3,71.6h21.4c-.5-5.1-4.6-9.6-10.3-9.6s-10,3.8-11.2,9.6h0Z"/>
    <path class="cls-4" d="M207.7,74.7v18.7h-6.5l-.6-5.8c-2.9,4.3-7.9,6.6-12.4,6.6-10.2,0-17.9-8.1-17.9-19.5s8.3-19.5,18.9-19.5,18.6,7,18.6,19.5h0ZM200.4,74.7c0-8.2-5.4-12.8-11.3-12.8s-11.6,5.1-11.6,12.8,4.8,12.8,11.6,12.8,11.3-4.8,11.3-12.8Z"/>
    <path class="cls-4" d="M212.7,93.4v-22.1c0-9.3,6-16,15.3-16s11.5,5,12,6.8h.2c.5-1.8,4.6-6.8,12-6.8s15.3,6.7,15.3,16v22.1h-7.3v-21.5c0-6.1-2.7-9.7-8.2-9.7s-8.2,3.7-8.2,9.9v21.4h-7.3v-21.4c0-6.2-2.7-9.9-8.2-9.9s-8.2,3.7-8.2,9.7v21.5h-7.4Z"/>
  </g>
</svg>