<svg width="180" height="27" viewBox="0 0 180 27" fill="none" xmlns="http://www.w3.org/2000/svg">
<g clip-path="url(#clip0_6340_3150)">
<path d="M5.07656 11.9045V25.5487H0V1.0957H0.0973305L15.6856 15.0985V1.45173H20.7954V25.9073H20.6981L5.07656 11.9045Z" fill="black"/>
<path d="M24.8965 13.5004C24.8965 6.17245 30.2983 1.0293 37.9132 1.0293C40.3208 1.0293 42.2418 1.45192 43.8683 2.20239V7.12014C42.3058 6.27234 40.2875 5.81898 37.9132 5.81898C32.9672 5.81898 30.0704 8.91307 30.0704 13.503C30.0704 18.0929 32.9672 21.187 37.9132 21.187C40.2875 21.187 42.3058 20.731 43.8683 19.8832V24.7677C42.2418 25.5489 40.3208 25.9715 37.9132 25.9715C30.2983 25.9715 24.8965 20.7951 24.8965 13.5004Z" fill="black"/>
<path d="M48.6992 1.45215H56.542C62.4971 1.45215 65.7833 4.77419 65.7833 9.68938C65.7833 12.8168 64.3182 15.355 61.1294 16.5589L66.5312 25.5466H60.7708L53.7732 13.4981H56.6368C59.1418 13.4981 60.6401 11.9664 60.6401 9.68938C60.6401 7.41236 59.0777 5.91142 56.606 5.91142H53.7758V25.5466H48.6992V1.45215Z" fill="black"/>
<path d="M73.4648 1.45215H79.0614L85.083 14.8684L91.0714 1.45215H96.6679L85.1163 25.9385H84.9857L73.4648 1.45215Z" fill="black"/>
<path d="M131.187 16.0748L122.693 1.45215H128.487L133.728 10.8625L138.968 1.45215H144.762L136.268 16.0722V25.5491H131.192V16.0722L131.187 16.0748Z" fill="black"/>
<path d="M148.58 1.45215H153.657V25.5491H148.58V1.45215Z" fill="black"/>
<path d="M168.513 17.1166L163.144 25.5511H157.092L165.357 13.2413L157.45 1.4541H163.503L168.546 9.33531L173.589 1.4541H179.642L171.702 13.2106L180 25.5511H173.948L168.513 17.1166Z" fill="black"/>
<path d="M114.182 6.96875C115.868 6.96875 117.235 5.60069 117.235 3.91309C117.235 2.22549 115.868 0.857422 114.182 0.857422C112.496 0.857422 111.129 2.22549 111.129 3.91309C111.129 5.60069 112.496 6.96875 114.182 6.96875Z" fill="#5F249F"/>
<path d="M105.782 26.1426C107.468 26.1426 108.835 24.7745 108.835 23.0869C108.835 21.3993 107.468 20.0312 105.782 20.0312C104.095 20.0312 102.729 21.3993 102.729 23.0869C102.729 24.7745 104.095 26.1426 105.782 26.1426Z" fill="#5F249F"/>
<path d="M106.178 6.80469C107.864 6.80469 109.231 5.43662 109.231 3.74903C109.231 2.06143 107.864 0.693359 106.178 0.693359C104.492 0.693359 103.125 2.06143 103.125 3.74903C103.125 5.43662 104.492 6.80469 106.178 6.80469Z" fill="#5F249F"/>
<path d="M113.787 26.3045C115.474 26.3045 116.841 24.9375 116.841 23.2513C116.841 21.5652 115.474 20.1982 113.787 20.1982C112.101 20.1982 110.734 21.5652 110.734 23.2513C110.734 24.9375 112.101 26.3045 113.787 26.3045Z" fill="#5F249F"/>
<path d="M100.403 12.3555C102.089 12.3555 103.456 10.9874 103.456 9.29981C103.456 7.61221 102.089 6.24414 100.403 6.24414C98.7165 6.24414 97.3496 7.61221 97.3496 9.29981C97.3496 10.9874 98.7165 12.3555 100.403 12.3555Z" fill="#5F249F"/>
<path d="M119.563 20.7588C121.249 20.7588 122.616 19.3907 122.616 17.7031C122.616 16.0155 121.249 14.6475 119.563 14.6475C117.877 14.6475 116.51 16.0155 116.51 17.7031C116.51 19.3907 117.877 20.7588 119.563 20.7588Z" fill="#5F249F"/>
<path d="M100.239 20.3643C101.925 20.3643 103.292 18.9962 103.292 17.3086C103.292 15.621 101.925 14.2529 100.239 14.2529C98.5525 14.2529 97.1855 15.621 97.1855 17.3086C97.1855 18.9962 98.5525 20.3643 100.239 20.3643Z" fill="#5F249F"/>
<path d="M119.727 12.75C121.413 12.75 122.78 11.3819 122.78 9.69434C122.78 8.00674 121.413 6.63867 119.727 6.63867C118.041 6.63867 116.674 8.00674 116.674 9.69434C116.674 11.3819 118.041 12.75 119.727 12.75Z" fill="#5F249F"/>
</g>
<defs>
<clipPath id="clip0_6340_3150">
<rect width="180" height="25.6133" fill="white" transform="translate(0 0.693359)"/>
</clipPath>
</defs>
</svg>
