<svg width="95" height="55" viewBox="0 0 95 55" fill="none" xmlns="http://www.w3.org/2000/svg">
<path d="M38.0899 0.402947C35.9763 1.37362 35.2118 4.39849 36.6059 6.27211C38.9669 9.47758 43.8462 7.91999 43.8462 3.99217C43.8462 0.989864 40.8556 -0.86118 38.0899 0.402947ZM53.2899 7.76198V11.9381H50.7041H48.1183V14.7598V17.5815H50.7041H53.2675L53.3349 27.7849C53.4249 39.0491 53.4249 39.1394 54.8864 40.9002C55.7633 41.9611 57.9669 43.0221 59.6982 43.2027C62.1491 43.451 65.6343 42.6609 66.8036 41.6C67.1408 41.2839 67.1183 41.1259 66.5337 39.1846C66.174 38.0333 65.8367 36.9949 65.7692 36.8369C65.7018 36.6337 65.432 36.6789 64.7124 36.9949C62.7337 37.8979 60.845 37.3335 60.1704 35.6405C59.8556 34.8504 59.8107 33.496 59.8107 26.1595V17.5815H62.8462H65.8817V14.7598V11.9381H62.8462H59.8107V7.76198V3.58584H56.5503H53.2899V7.76198ZM13.4012 11.5092C11.6024 11.9381 9.21894 13.2925 7.84734 14.6695C7.12781 15.3919 6.47574 16.0014 6.40828 16.0014C6.34083 16.0014 6.29586 15.0759 6.29586 13.9697V11.9381H3.14793H0V33.0445V54.1509H3.14793H6.29586V46.2501C6.29586 41.8934 6.34083 38.3493 6.40828 38.3493C6.47574 38.3493 7.12781 38.9588 7.89231 39.6812C13.9858 45.6632 24.1491 43.8122 27.8592 36.0468C29.3432 32.9542 29.568 31.803 29.568 27.2882C29.568 22.7058 29.2982 21.3288 27.8142 18.2588C26.1503 14.805 22.9349 12.2541 19.3822 11.5092C17.9657 11.2158 14.6379 11.2158 13.4012 11.5092ZM17.4935 17.5364C19.9444 18.4845 21.8781 20.787 22.6201 23.699C23.1822 25.7532 23.1373 29.2521 22.5302 31.058C21.2935 34.9407 18.5503 37.1755 14.8402 37.4013C12.0746 37.5593 9.21894 36.3403 7.21775 34.1732L6.29586 33.1574V27.2205C6.29586 20.6741 6.25089 20.9224 7.84734 19.5003C8.9716 18.5071 9.73609 18.1007 11.5349 17.4461C13.4686 16.7689 15.5822 16.814 17.4935 17.5364ZM78.0686 11.7124C75.8426 12.2993 74.3361 13.1571 72.8296 14.647C71.1882 16.2723 70.5361 17.8976 70.5361 20.2904C70.5361 22.3897 70.8509 23.541 71.7953 24.9631C73.1894 27.0625 75.7976 28.3266 81.3065 29.6359C86.8379 30.9226 88.3444 31.6901 88.8166 33.338C89.3112 35.1439 87.9621 37.0401 85.7136 37.6947C84.3195 38.101 81.1941 38.0559 79.3728 37.5818C77.5065 37.1078 74.5834 35.6857 73.3917 34.6473L72.4473 33.8346L70.9858 36.1597L69.5018 38.4622L70.4462 39.32C71.8402 40.5616 74.5834 41.916 77.0793 42.5706C79.9799 43.3381 84.6118 43.3833 87.2876 42.6835C90.6604 41.7806 93.0888 39.9972 94.3479 37.5141C94.955 36.2951 95 36.0243 95 33.7217C95 31.5095 94.9325 31.1032 94.4154 29.9971C92.9089 26.8368 90.3006 25.4372 82.1834 23.5636C77.1467 22.3897 75.7976 21.0353 77.2367 18.5748C78.226 16.8818 80.7894 16.0465 83.8698 16.4303C86.613 16.7915 88.6142 17.6041 90.6604 19.2068L91.4923 19.8615L91.8296 19.3423C93.6059 16.5206 94.1681 15.4145 93.9432 15.1662C93.3586 14.4438 90.3231 12.7959 88.3669 12.1413C86.4107 11.4866 85.9385 11.3963 82.9704 11.3286C80.2497 11.2609 79.4402 11.3286 78.0686 11.7124ZM36.6509 27.1754V42.4126H39.9112H43.1716V27.1754V11.9381H39.9112H36.6509V27.1754ZM17.9882 47.4917V49.2073L17.2911 48.6881C16.7965 48.3044 16.3243 48.1689 15.5598 48.1915C14.6828 48.2141 14.4355 48.3269 13.8059 49.0267C12.5018 50.4489 12.5692 52.932 13.9183 54.2638C14.8178 55.099 16.2793 55.1893 17.2911 54.4218C17.9657 53.9252 17.9882 53.9252 17.9882 54.3767C17.9882 54.7379 18.1456 54.8282 18.6627 54.8282H19.3373V50.3134V45.7987H18.6627H17.9882V47.4917ZM17.2686 49.6362C18.0107 50.0877 18.0107 50.1103 17.9432 51.6227C17.8757 53.1351 17.8757 53.1351 17.0213 53.564C16.2793 53.9252 16.0769 53.9252 15.4698 53.6769C13.8734 53.0223 13.7609 50.3586 15.3124 49.5008C16.0544 49.0944 16.4142 49.117 17.2686 49.6362ZM67.0059 47.3788C67.0059 48.1915 66.9609 48.2818 66.4438 48.2818C65.9941 48.2818 65.8817 48.3946 65.8817 48.8461C65.8817 49.2976 65.9941 49.4105 66.4438 49.4105C66.9834 49.4105 66.9834 49.4105 67.0509 51.9387C67.1183 54.467 67.1183 54.4896 67.7479 54.783C68.6698 55.2345 69.7041 54.941 69.7041 54.2412C69.7041 53.7898 69.6142 53.6995 69.3219 53.7898C68.4675 54.0607 68.2426 53.5866 68.1751 51.4421L68.0852 49.4105H68.7823C69.3669 49.4105 69.4793 49.3202 69.4793 48.8461C69.4793 48.3721 69.3669 48.2818 68.8047 48.2818C68.1751 48.2818 68.1302 48.2366 68.1302 47.3788C68.1302 46.5662 68.0852 46.4759 67.568 46.4759C67.0734 46.4759 67.0059 46.5662 67.0059 47.3788ZM71.2781 47.3788C71.2781 48.1915 71.2331 48.2818 70.716 48.2818C70.2663 48.2818 70.1538 48.3946 70.1538 48.8461C70.1538 49.2976 70.2663 49.4105 70.6935 49.4105C71.2331 49.4105 71.2331 49.4556 71.3231 51.8033C71.3905 54.0381 71.4355 54.2187 71.9527 54.6476C72.3574 54.9862 72.7172 55.0539 73.2793 54.9636C74.2237 54.8282 74.2686 54.7604 74.0888 54.1509C73.9988 53.8349 73.8189 53.722 73.5941 53.7898C72.8746 54.0832 72.6272 53.4963 72.6272 51.4195V49.4105H73.3018C73.8639 49.4105 73.9763 49.3202 73.9763 48.8461C73.9763 48.3721 73.8639 48.2818 73.3018 48.2818C72.6722 48.2818 72.6272 48.2366 72.6272 47.3788C72.6272 46.521 72.5823 46.4759 71.9527 46.4759C71.3231 46.4759 71.2781 46.521 71.2781 47.3788ZM23.2722 48.2141C20.5965 48.9364 20.0793 53.0448 22.4852 54.467C24.5988 55.7085 27.2521 54.3993 27.5893 51.9387C27.7467 50.7875 27.0497 49.2299 26.1278 48.6881C25.4083 48.2592 23.9692 48.0109 23.2722 48.2141ZM25.1834 49.5233C26.645 50.2908 26.5775 52.9094 25.071 53.6317C22.6876 54.783 21.0911 50.7875 23.4071 49.5008C24.1041 49.117 24.3965 49.117 25.1834 49.5233ZM31.1645 48.2818C28.8935 49.0041 28.129 52.0064 29.7254 53.8349C30.8272 55.0765 32.5586 55.3248 34.245 54.4444C34.7621 54.1961 34.8296 54.0607 34.6272 53.6995C34.4024 53.2706 34.3349 53.2706 33.7278 53.5866C32.2213 54.3767 30.355 53.6092 30.355 52.2096C30.355 51.9613 30.8497 51.8936 32.8509 51.8936H35.3692L35.2343 50.9906C34.9645 48.8913 33.1207 47.6723 31.1645 48.2818ZM33.3231 49.6362C33.6379 49.8845 33.9527 50.2908 34.0201 50.5392C34.1325 50.9681 34.0426 50.9906 32.1538 50.9906C30.2651 50.9906 30.1751 50.9681 30.2876 50.5392C30.4675 49.8845 31.4343 49.1847 32.1538 49.1847C32.4911 49.1847 33.0308 49.3879 33.3231 49.6362ZM38 48.3044C37.0556 48.6881 36.6509 49.2073 36.6509 50.02C36.6509 50.9681 37.2355 51.5775 38.4947 51.8936C40.4059 52.3676 41.013 52.9094 40.3609 53.564C39.8663 54.0607 38.4947 54.0155 37.6402 53.4963C36.9657 53.09 36.9432 53.09 36.6959 53.4963C36.3361 54.0607 36.3361 54.1058 37.0556 54.4444C38.6071 55.2345 40.8107 55.0539 41.4852 54.0832C41.9799 53.3609 41.9124 52.2773 41.3278 51.713C41.0355 51.4647 40.316 51.1261 39.6864 50.9681C37.7527 50.494 37.4604 50.2231 38.1349 49.5459C38.5846 49.0944 40.0012 49.0719 40.6308 49.5233C41.0805 49.8394 41.1479 49.8394 41.3728 49.433C41.5527 49.0493 41.5077 48.9138 41.0805 48.6204C40.4059 48.1689 38.7195 47.9883 38 48.3044ZM49.6923 48.3044C49.4 48.4172 48.9503 48.6881 48.7479 48.8913C48.3657 49.2299 48.3432 49.2299 48.3432 48.7784C48.3432 48.3721 48.2083 48.2818 47.6686 48.2818H46.9941V51.555V54.8282H47.6686H48.3432V52.5031C48.3432 50.5617 48.4107 50.0877 48.7479 49.7942C49.3325 49.2525 50.187 49.117 50.7041 49.5008C51.0864 49.7716 51.1538 50.1554 51.2213 52.3225C51.3112 54.783 51.3337 54.8282 51.8509 54.8282C52.3905 54.8282 52.3905 54.8056 52.3905 52.5031C52.3905 49.9522 52.5479 49.6136 53.7846 49.2976C54.2118 49.1847 54.5041 49.275 54.8414 49.6136C55.2686 50.0425 55.3136 50.3586 55.3136 52.4579V54.8282H55.8757H56.4379V51.9161C56.4379 49.0041 56.4379 48.9816 55.8308 48.5075C55.0888 47.9206 53.987 48.0109 53.0426 48.7107C52.458 49.1396 52.458 49.1396 52.0308 48.7107C51.4911 48.1915 50.4343 47.9883 49.6923 48.3044ZM59.8331 48.4624C59.4059 48.6655 58.8663 49.2073 58.6414 49.6362C57.832 51.1712 58.2817 53.722 59.5183 54.5347C60.3503 55.0765 61.9467 55.0087 62.5763 54.4218C63.2284 53.8123 63.4083 53.7898 63.4083 54.3767C63.4083 54.7153 63.5657 54.8282 63.9704 54.8282H64.5325V51.555V48.2818H63.9704C63.5657 48.2818 63.4083 48.3946 63.4083 48.7333C63.4083 48.9816 63.3183 49.1847 63.1834 49.1847C63.071 49.1847 62.9586 49.0944 62.9586 48.9816C62.9586 48.7333 61.5645 48.056 61.0024 48.056C60.7775 48.056 60.2604 48.2366 59.8331 48.4624ZM62.2615 49.433C62.6438 49.5685 63.071 49.8619 63.1834 50.0877C63.5432 50.7875 63.4533 52.7062 63.026 53.1351C62.5089 53.6769 61.6544 53.9478 61.0249 53.7898C59.2485 53.3383 59.0686 50.1103 60.8 49.4105C61.4296 49.1396 61.4296 49.1396 62.2615 49.433ZM77.4615 48.2141C74.7858 48.9364 74.2686 53.0674 76.6746 54.467C77.6639 55.0539 79.4852 55.0539 80.4521 54.467C81.1041 54.1058 81.1266 54.0381 80.8118 53.6769C80.497 53.3383 80.4071 53.3383 79.8675 53.6092C78.8556 54.1284 77.8438 54.0155 77.1018 53.2706C75.8876 52.0516 76.1124 51.8936 79.058 51.8936H81.6663L81.5089 51.0583C81.3065 49.9071 80.8568 49.0944 80.1823 48.6655C79.5752 48.2592 78.1586 48.0109 77.4615 48.2141ZM79.7101 49.7491C80.7444 50.7649 80.497 50.9906 78.3609 50.9906C76.787 50.9906 76.4497 50.9229 76.4497 50.652C76.4497 49.9748 77.5065 49.1847 78.3609 49.1847C78.9231 49.1847 79.3503 49.3653 79.7101 49.7491ZM85.8935 48.3044C85.6012 48.4398 85.1515 48.6881 84.9491 48.8913C84.5669 49.2299 84.5444 49.2299 84.5444 48.7784C84.5444 48.3721 84.4095 48.2818 83.8698 48.2818H83.1953V51.555V54.8282H83.8698H84.5444V52.4805C84.5444 50.2908 84.5894 50.0877 85.0391 49.7716C85.3089 49.5685 85.7811 49.4105 86.0509 49.4105C86.4781 49.4105 86.568 49.2976 86.568 48.7333C86.568 48.3495 86.5456 48.056 86.5231 48.0786C86.4781 48.0786 86.2083 48.1915 85.8935 48.3044Z" fill="#D93927"/>
</svg>
