<?xml version="1.0" encoding="UTF-8"?><svg id="Logo_hor_neg_L" xmlns="http://www.w3.org/2000/svg" viewBox="0 0 144 37"><defs><style>.cls-1{fill:none;}.cls-2{fill:#001641;}.cls-3{fill:#58b847;}</style></defs><g><polygon class="cls-2" points=".07 6.05 .07 11.38 8.59 11.38 8.59 35.9 14.24 35.9 14.24 11.38 22.88 11.38 22.88 6.05 .07 6.05"/><path class="cls-2" d="M37.91,24.71h-3.73v11.19h-5.54V6.05h11.08c6.82,0,10.02,4.48,10.02,9.38,0,3.62-1.92,7.25-6.29,8.74l7.57,11.83h-6.4l-6.71-11.3Zm-3.62-5.01h5.01c3.62,0,5.01-2.13,5.01-4.37s-1.49-4.26-4.37-4.26h-5.65v8.63Z"/><rect class="cls-2" x="58.16" y="6.05" width="5.54" height="29.84"/><polygon class="cls-2" points="72.97 6.05 78.51 6.05 78.51 30.57 93.86 30.57 93.86 35.9 72.97 35.9 72.97 6.05"/><rect class="cls-2" x="99.94" y="6.05" width="5.54" height="29.84"/><g><path class="cls-3" d="M128.29,34.77c3.72,0,7.16-1.4,9.69-3.95,2.56-2.58,3.95-6.1,3.93-9.91,0-7.81-5.98-13.92-13.61-13.92h-1.56v1.08h1.56c7.03,0,12.54,5.64,12.54,12.85,.03,3.53-1.26,6.78-3.61,9.15-2.33,2.34-5.5,3.63-8.92,3.63-7.15,0-12.54-5.5-12.54-12.79,0-3.19,1.1-6.22,3.11-8.55l-.77-.77c-2.2,2.53-3.42,5.83-3.42,9.32,0,7.91,5.85,13.87,13.61,13.87Z"/><path class="cls-3" d="M128.29,36.91c4.29,0,8.26-1.62,11.18-4.56,2.95-2.97,4.56-7.04,4.53-11.44,0-8.97-6.87-16.02-15.63-16.06h-.58V-.19l-7.31,7.76,7.31,7.76v-5.12h.5c5.85,0,10.44,4.7,10.44,10.7,.02,2.94-1.05,5.65-3.01,7.62-1.94,1.95-4.58,3.03-7.43,3.03-5.95,0-10.44-4.58-10.44-10.65,0-2.61,.89-5.11,2.52-7.04l-.77-.77c-1.82,2.13-2.83,4.9-2.83,7.8,0,6.69,4.95,11.73,11.51,11.73,3.14,0,6.05-1.19,8.19-3.34,2.16-2.18,3.34-5.16,3.32-8.38,0-6.6-5.06-11.77-11.51-11.77h-1.58v3.48l-4.76-5.05,4.76-5.05v3.4h1.58c8.21,0,14.64,6.59,14.64,14.99,.03,4.12-1.47,7.91-4.22,10.68-2.72,2.74-6.42,4.24-10.42,4.24-8.34,0-14.64-6.42-14.64-14.93,0-3.76,1.31-7.33,3.7-10.06l-.77-.76c-2.59,2.93-4.01,6.77-4.01,10.83,0,9.12,6.75,16.01,15.71,16.01Z"/></g></g><rect class="cls-1" x="-27.6" y="-24.2" width="198.8" height="84.5"/></svg>