<?xml version="1.0" encoding="UTF-8"?>
<svg width="52px" height="33px" viewBox="0 0 52 33" version="1.1" xmlns="http://www.w3.org/2000/svg" xmlns:xlink="http://www.w3.org/1999/xlink">
    <!-- Generator: Sketch 50.2 (55047) - http://www.bohemiancoding.com/sketch -->
    <title>Group 17</title>
    <desc>Created with Sketch.</desc>
    <defs></defs>
    <g id="Welcome" stroke="none" stroke-width="1" fill="none" fill-rule="evenodd">
        <g id="Home" transform="translate(-334.000000, -312.000000)" fill-rule="nonzero">
            <g id="Group-17" transform="translate(334.000000, 312.000000)">
                <polygon id="Shape" fill="#F7981F" points="14.027 16.2888 12.584 22.3212 15.444 22.3212 14.053 16.2888"></polygon>
                <path d="M0,22.8624 L0,23.76 C0,28.1292 4.654,32.5512 10.4,32.5512 L40.976,32.5512 C46.722,32.5512 51.376,28.1292 51.376,23.76 L51.376,22.8888 C51.376,18.8232 47.346,13.6488 42.159,13.266 C42.0590534,10.8134003 40.6548027,8.60955018 38.4925196,7.51177566 C36.3302364,6.41400114 33.7513193,6.59562759 31.759,7.986 C29.2566356,2.23239845 23.131364,-0.95945444 17.068769,0.33098325 C11.006174,1.62142094 6.65902202,7.04235394 6.643,13.332 C6.643,13.464 6.643,13.596 6.643,13.728 C2.769,14.8632 0,19.4964 0,22.8624 Z M16.51,26.8884 L15.769,23.892 L12.233,23.892 L11.453,26.8884 L9.438,26.8884 L12.87,14.6388 L15.34,14.6388 L18.512,26.8884 L16.51,26.8884 Z M28.21,26.8884 L26,26.8884 L24.44,17.6484 L22.906,26.8884 L20.631,26.8884 L18.304,14.6388 L20.254,14.6388 L21.84,24.156 L23.4,14.6388 L25.441,14.6388 L27.053,24.2088 L28.626,14.6388 L30.537,14.6388 L28.21,26.8884 Z M35.269,27.126 C34.2625328,27.2470185 33.2570809,26.8920163 32.5416981,26.1630517 C31.8263153,25.4340871 31.4802532,24.4119165 31.603,23.3904 L31.603,23.1 L33.54,23.1 L33.54,23.4036 C33.54,24.8952 34.19,25.6476 35.529,25.6476 C36.009753,25.6814831 36.4821367,25.5069624 36.8290367,25.1673054 C37.1759367,24.8276483 37.3648715,24.3546583 37.349,23.8656 C37.4278369,22.7904402 36.6714666,21.8376498 35.62,21.6876 L34.32,21.2256 C32.7825466,20.8795889 31.7162389,19.456436 31.798,17.8596 C31.798,15.6288 33.293,14.388 35.555,14.388 C38.649,14.388 38.961,16.3416 38.961,17.622 L38.961,17.8992 L37.024,17.8992 L37.024,17.6352 C37.024,16.5132 36.543,15.8664 35.334,15.8664 C34.8741984,15.8389863 34.4262792,16.0210346 34.1120974,16.3630191 C33.7979156,16.7050036 33.65015,17.1713536 33.709,17.6352 C33.709,18.678 34.242,19.2192 35.529,19.7076 L36.829,20.196 C38.3216304,20.5080561 39.3624269,21.8852804 39.273,23.43 C39.273,26.0436 37.7,27.126 35.282,27.126 L35.269,27.126 Z" id="Shape" fill="#F7981F"></path>
                <path d="M12.87,14.6388 L9.438,26.8884 L11.453,26.8884 L12.233,23.892 L15.769,23.892 L16.51,26.8884 L18.525,26.8884 L15.34,14.6388 L12.87,14.6388 Z M12.584,22.3212 L14.027,16.2888 L15.418,22.3212 L12.584,22.3212 Z" id="Shape" fill="#FFFFFF"></path>
                <polygon id="Shape" fill="#FFFFFF" points="27.144 24.2088 27.105 24.2088 25.48 14.6388 23.452 14.6388 21.866 24.156 21.84 24.156 20.241 14.6388 18.304 14.6388 20.631 26.8884 22.867 26.8884 24.401 17.6616 24.44 17.6616 26 26.8884 28.223 26.8884 30.628 14.6388 28.717 14.6388"></polygon>
                <path d="M36.829,20.196 L35.529,19.7208 C34.229,19.2192 33.722,18.6912 33.722,17.6352 C33.6551576,17.1695631 33.7974229,16.6980245 34.1096591,16.3503034 C34.4218953,16.0025823 34.8712108,15.8153083 35.334,15.84 C36.543,15.84 37.024,16.5 37.024,17.6088 L37.024,17.8728 L39,17.8728 L39,17.5956 C39,16.2756 38.675,14.3748 35.581,14.3748 C33.319,14.3748 31.824,15.6024 31.824,17.8332 C31.7422389,19.430036 32.8085466,20.8531889 34.346,21.1992 L35.646,21.6612 C36.6888751,21.8234417 37.4350375,22.7704939 37.362,23.8392 C37.3775372,24.3293047 37.1889675,24.8033707 36.8425726,25.1450455 C36.4961777,25.4867203 36.0240259,25.6643725 35.542,25.6344 C34.242,25.6344 33.566,24.8688 33.566,23.3772 L33.566,23.1 L31.616,23.1 L31.616,23.3904 C31.4977045,24.4132715 31.8471031,25.434843 32.5643183,26.1630922 C33.2815334,26.8913415 34.2876265,27.2461155 35.295,27.126 C37.726,27.126 39.273,26.0568 39.273,23.4432 C39.3634192,21.8953842 38.323613,20.5138545 36.829,20.196 Z" id="Shape" fill="#FFFFFF"></path>
            </g>
        </g>
    </g>
</svg>