<?xml version="1.0" encoding="UTF-8"?>
<svg width="86px" height="70px" viewBox="0 0 86 70" version="1.1" xmlns="http://www.w3.org/2000/svg" xmlns:xlink="http://www.w3.org/1999/xlink">
    <!-- Generator: Sketch 50.2 (55047) - http://www.bohemiancoding.com/sketch -->
    <title>Shape</title>
    <desc>Created with Sketch.</desc>
    <defs></defs>
    <g id="Welcome" stroke="none" stroke-width="1" fill="none" fill-rule="evenodd">
        <g id="Community" transform="translate(-163.000000, -630.000000)" fill="#1DA1F2" fill-rule="nonzero">
            <g id="Group-7" transform="translate(121.000000, 630.000000)">
                <g id="Group-4">
                    <g id="twitter" transform="translate(42.000000, 0.000000)">
                        <path d="M77.1601061,17.445249 C77.2146962,18.2108374 77.2146962,18.9765942 77.2146962,19.7421826 C77.2146962,43.0936401 59.4799823,70 27.0660862,70 C17.0799691,70 7.8033547,67.1014364 0,62.0704026 C1.41883757,62.2343611 2.78291712,62.28907 4.25634475,62.28907 C12.496084,62.28907 20.0812464,59.5000926 26.1383912,54.7422668 C18.3896265,54.57814 11.8959293,49.4922289 9.65857679,42.4921784 C10.750042,42.6561369 11.8413392,42.7655548 12.9873945,42.7655548 C14.5698343,42.7655548 16.152442,42.546719 17.6257017,42.1640931 C9.54956465,40.5233301 3.49225192,33.41403 3.49225192,24.8280937 L3.49225192,24.6094263 C5.83861656,25.9219358 8.56727956,26.7422331 11.4592088,26.8514827 C6.71172153,23.6795427 3.60143204,18.2655464 3.60143204,12.1405022 C3.60143204,8.85931266 4.47436904,5.85149951 6.00238673,3.22648057 C14.6788464,13.9452237 27.7208309,20.9451059 42.3450873,21.7108627 C42.072305,20.3983532 41.9085348,19.0313031 41.9085348,17.6640847 C41.9085348,7.92959741 49.7664796,0 59.5342365,0 C64.6090961,0 69.1928133,2.13280684 72.4124508,5.57812316 C76.3958453,4.81253472 80.2156376,3.33589844 83.5990453,1.31250947 C82.2892199,5.41416468 79.5063028,8.859481 75.8502807,11.0468284 C79.3972906,10.6642026 82.8351204,9.67961004 86,8.31255997 C83.5993812,11.8124169 80.5979359,14.9294796 77.1601061,17.445249 Z" id="Shape"></path>
                    </g>
                </g>
            </g>
        </g>
    </g>
</svg>