<?xml version="1.0" encoding="UTF-8"?>
<svg width="108px" height="70px" viewBox="0 0 108 70" version="1.1" xmlns="http://www.w3.org/2000/svg" xmlns:xlink="http://www.w3.org/1999/xlink">
    <!-- Generator: Sketch 50.2 (55047) - http://www.bohemiancoding.com/sketch -->
    <title>Group 3</title>
    <desc>Created with Sketch.</desc>
    <defs></defs>
    <g id="Welcome" stroke="none" stroke-width="1" fill="none" fill-rule="evenodd">
        <g id="Community" transform="translate(-764.000000, -630.000000)">
            <g id="Group-3" transform="translate(764.000000, 630.000000)">
                <g id="Group" fill="#00AAB2">
                    <rect id="Rectangle-13" x="0" y="0" width="64.75" height="46.375" rx="2"></rect>
                    <path d="M6.28649902,45.3034668 C6.60892741,50.6918945 5.0349528,53.3861084 1.5645752,53.3861084 C-3.64099121,53.3861084 16.4814453,56.6682129 16.4814453,45.3034668 C16.4814453,37.7269694 13.0831299,37.7269694 6.28649902,45.3034668 Z" id="Path-2"></path>
                </g>
                <circle id="Oval-3" fill="#D8D8D8" cx="16.625" cy="22.75" r="4.375"></circle>
                <circle id="Oval-3" fill="#D8D8D8" cx="33.25" cy="22.75" r="4.375"></circle>
                <g id="Group" transform="translate(71.625000, 40.875000) scale(-1, 1) translate(-71.625000, -40.875000) translate(35.625000, 11.375000)" fill="#3ACCC5">
                    <rect id="Rectangle-13" x="0" y="0" width="71.1188525" height="50.9364754" rx="2"></rect>
                    <path d="M7.08170934,49.3991879 C7.43524504,55.2322257 5.70941616,58.1487445 1.9042227,58.1487445 C-3.80356749,58.1487445 18.2602459,61.7016621 18.2602459,49.3991879 C18.2602459,41.1975385 14.534067,41.1975385 7.08170934,49.3991879 Z" id="Path-2"></path>
                </g>
                <circle id="Oval-3" fill="#FFFFFF" cx="55.125" cy="36.75" r="4.375"></circle>
                <circle id="Oval-3" fill="#FFFFFF" cx="71.75" cy="36.75" r="4.375"></circle>
                <circle id="Oval-3" fill="#FFFFFF" cx="89.25" cy="36.75" r="4.375"></circle>
            </g>
        </g>
    </g>
</svg>