<?xml version="1.0" encoding="UTF-8"?>
<svg width="44px" height="41px" viewBox="0 0 44 41" version="1.1" xmlns="http://www.w3.org/2000/svg" xmlns:xlink="http://www.w3.org/1999/xlink">
    <!-- Generator: Sketch 50.2 (55047) - http://www.bohemiancoding.com/sketch -->
    <title>Group 19</title>
    <desc>Created with Sketch.</desc>
    <defs>
        <linearGradient x1="11.8867925%" y1="59.9599512%" x2="40.7924528%" y2="41.9520917%" id="linearGradient-1">
            <stop stop-color="#2D3079" stop-opacity="0.2" offset="0%"></stop>
            <stop stop-color="#2D3079" stop-opacity="0" offset="66%"></stop>
        </linearGradient>
        <linearGradient x1="-16%" y1="9.69230769%" x2="84.4444444%" y2="79.2307692%" id="linearGradient-2">
            <stop stop-color="#2D3079" stop-opacity="0.2" offset="0%"></stop>
            <stop stop-color="#2D3079" stop-opacity="0.04" offset="100%"></stop>
        </linearGradient>
        <linearGradient x1="79.6433005%" y1="74.2325581%" x2="52.536748%" y2="53.5813953%" id="linearGradient-3">
            <stop stop-color="#BE3A26" stop-opacity="0.15" offset="0%"></stop>
            <stop stop-color="#BE3A26" stop-opacity="0" offset="66%"></stop>
        </linearGradient>
        <linearGradient x1="49.9986508%" y1="0.812995914%" x2="49.9986508%" y2="36.5848161%" id="linearGradient-4">
            <stop stop-color="#A52822" stop-opacity="0.2" offset="0%"></stop>
            <stop stop-color="#A52822" stop-opacity="0" offset="66%"></stop>
        </linearGradient>
        <linearGradient x1="-10.516129%" y1="36.2601626%" x2="62.4516129%" y2="82.2357724%" id="linearGradient-5">
            <stop stop-color="#3E2723" stop-opacity="0.15" offset="0%"></stop>
            <stop stop-color="#3E2723" stop-opacity="0" offset="100%"></stop>
        </linearGradient>
        <linearGradient x1="50%" y1="0.322580645%" x2="50%" y2="99.0322581%" id="linearGradient-6">
            <stop stop-color="#3E2723" stop-opacity="0.15" offset="0%"></stop>
            <stop stop-color="#462823" stop-opacity="0.14" offset="4%"></stop>
            <stop stop-color="#712E24" stop-opacity="0.11" offset="25%"></stop>
            <stop stop-color="#923325" stop-opacity="0.08" offset="46%"></stop>
            <stop stop-color="#AA3726" stop-opacity="0.05" offset="66%"></stop>
            <stop stop-color="#B93926" stop-opacity="0.02" offset="85%"></stop>
            <stop stop-color="#BE3A26" stop-opacity="0" offset="100%"></stop>
        </linearGradient>
        <radialGradient cx="5306.05345%" cy="-15796.1317%" fx="5306.05345%" fy="-15796.1317%" r="1.10446541%" gradientTransform="translate(53.060534,-157.961317),scale(0.904598,1.000000),translate(-53.060534,157.961317)" id="radialGradient-7">
            <stop stop-color="#FFFFFF" stop-opacity="0.1" offset="0%"></stop>
            <stop stop-color="#FFFFFF" stop-opacity="0" offset="100%"></stop>
        </radialGradient>
    </defs>
    <g id="Welcome" stroke="none" stroke-width="1" fill="none" fill-rule="evenodd">
        <g id="Home" transform="translate(-732.000000, -308.000000)">
            <g id="Group-19" transform="translate(732.000000, 305.000000)">
                <g id="g288" transform="translate(0.000000, 4.000000)" fill-rule="nonzero">
                    <path d="M15.25,7.92580645 L37.375,7.92580645 L33.75,1.63548387 C33.2568912,0.706910616 32.2961284,0.126733852 31.25,0.125806452 L12.5,0.125806452 C11.4483847,0.106453446 10.4779111,0.69249426 10,1.63548387 L4.25,11.8258065 L15.25,31.0741935 L15.25,7.92580645 Z" id="path243" fill="#547DBF"></path>
                    <path d="M15.25,7.92580645 L37.375,7.92580645 L33.75,1.63548387 C33.2568912,0.706910616 32.2961284,0.126733852 31.25,0.125806452 L12.5,0.125806452 C11.4483847,0.106453446 10.4779111,0.69249426 10,1.63548387 L4.25,11.8258065 L15.25,31.0741935 L15.25,7.92580645 Z" id="path250" fill="url(#linearGradient-1)"></path>
                    <polygon id="polygon257" fill="url(#linearGradient-2)" points="8.875 20.0032258 4.25 11.8258065 9.875 17.3612903"></polygon>
                    <polygon id="polygon259" fill-opacity="0.1" fill="#2D3079" points="4.25 11.8258065 8.875 20.0032258 9.125 19.8774194 4.875 12.4548387"></polygon>
                    <path d="M15.25,31.0741935 L4.25,11.8258065 L0.625,18.116129 C0.123983589,19.0147399 0.123983589,20.1110666 0.625,21.0096774 L10,37.3645161 C10.5180163,38.2688484 11.4634024,38.8397397 12.5,38.8741935 L24.125,38.8741935 L35.25,19.5 L15.25,31.0741935 Z" id="path261" fill="#FFCE40"></path>
                    <path d="M15.25,31.0741935 L4.25,11.8258065 L0.625,18.116129 C0.123983589,19.0147399 0.123983589,20.1110666 0.625,21.0096774 L10,37.3645161 C10.5180163,38.2688484 11.4634024,38.8397397 12.5,38.8741935 L24.125,38.8741935 L35.25,19.5 L15.25,31.0741935 Z" id="path268" fill="url(#linearGradient-3)"></path>
                    <path d="M37.375,7.92580645 L15.25,7.92580645 L35.125,19.5 L24,38.8741935 L31.25,38.8741935 C32.3016153,38.8935466 33.2720889,38.3075057 33.75,37.3645161 L43.125,20.883871 C43.6260164,19.9852601 43.6260164,18.8889334 43.125,17.9903226 L37.375,7.92580645 Z" id="path270" fill="#DB4436"></path>
                    <path d="M37.375,7.92580645 L15.25,7.92580645 L35.125,19.5 L24,38.8741935 L31.25,38.8741935 C32.3016153,38.8935466 33.2720889,38.3075057 33.75,37.3645161 L43.125,20.883871 C43.6260164,19.9852601 43.6260164,18.8889334 43.125,17.9903226 L37.375,7.92580645 Z" id="path277" fill="url(#linearGradient-4)"></path>
                    <polygon id="polygon284" fill="url(#linearGradient-5)" points="43.5 38.8741935 24.125 38.8741935 28.5 31.0741935 28.5 7.92580645 43.5 23.0225806"></polygon>
                    <rect id="rect286" fill-opacity="0.05" fill="#3E2723" x="28.375" y="7.92580645" width="9.375" height="1"></rect>
                </g>
                <g id="Group">
                    <g id="g304" transform="translate(4.000000, 3.810811)" fill-rule="nonzero">
                        <g id="Group">
                            <g id="g298" transform="translate(3.750000, 7.621622)" fill="#EEEEEE">
                                <polyline id="path296" points="20.75 0.381081081 27.375 12.0675676 20.75 23.7540541 7.5 23.7540541 0.875 12.0675676 7.5 0.381081081 20.75 0.381081081"></polyline>
                            </g>
                            <g id="g302" fill="#547DBF">
                                <path d="M11.25,8.0027027 L33.375,8.0027027 L29.75,1.65135135 C29.2568912,0.71376907 28.2961284,0.127963425 27.25,0.127027027 L8.5,0.127027027 C7.44838466,0.107486259 6.47791109,0.699212846 6,1.65135135 L0.25,11.9405405 L11.25,31.3756757 L11.25,8.0027027 Z" id="path300"></path>
                            </g>
                        </g>
                    </g>
                    <g>
                        <g id="g316" transform="translate(7.750000, 11.432432)" fill="#EEEEEE" fill-rule="nonzero">
                            <g id="g314">
                                <polyline id="path312" points="20.75 0.381081081 27.375 12.0675676 20.75 23.7540541 7.5 23.7540541 0.875 12.0675676 7.5 0.381081081 20.75 0.381081081"></polyline>
                            </g>
                        </g>
                        <g id="g328" transform="translate(7.750000, 11.432432)" fill-rule="nonzero">
                            <polyline id="path318" fill="#EEEEEE" points="20.75 0.381081081 27.375 12.0675676 20.75 23.7540541 7.5 23.7540541 0.875 12.0675676 7.5 0.381081081 20.75 0.381081081"></polyline>
                            <polygon id="polygon320" fill-opacity="0.4" fill="#FFFFFF" points="27.5 12.0675676 20.75 0.381081081 7.5 0.381081081 0.875 12.0675676 1 12.0675676 7.5 0.635135135 20.75 0.635135135 27.25 12.0675676"></polygon>
                            <polygon id="polygon322" fill-opacity="0.05" fill="#262626" points="7.5 23.5 1 12.0675676 0.875 12.0675676 7.5 23.7540541 20.75 23.7540541 27.5 12.0675676 27.25 12.0675676 20.75 23.5"></polygon>
                            <polygon id="polygon324" fill-opacity="0.05" fill="#BE3A26" points="7.5 23.7540541 0.875 12.0675676 0.875 12.3216216 7.5 24.0081081 20.75 24.0081081 27.5 12.3216216 27.5 12.0675676 20.75 23.7540541"></polygon>
                            <path d="M14,5.97027027 C10.8384757,6.00463462 8.28381599,8.60072122 8.25,11.8135135 L19.75,11.8135135 C19.7738649,10.256481 19.1757296,8.75609676 18.0921789,7.65497496 C17.0086282,6.55385317 15.5321863,5.94601839 14,5.97027027 Z M8.25,12.3216216 C8.25000007,15.5487557 10.8243627,18.1648647 14,18.1648647 C17.1756373,18.1648647 19.7499999,15.5487557 19.75,12.3216216 L8.25,12.3216216 Z" id="path326" fill-opacity="0.1" fill="#262626"></path>
                        </g>
                        <polygon id="polygon345" fill="url(#linearGradient-6)" fill-rule="nonzero" points="24.125 43.0621622 28.5 35.1864865 15.25 35.1864865 23 43.0621622"></polygon>
                        <g id="g349" transform="translate(0.000000, 3.810811)" fill="#FFFFFF" fill-opacity="0.2" fill-rule="nonzero">
                            <path d="M4.25,12.1945946 L10,1.90540541 C10.5180163,0.992299249 11.4634024,0.415869238 12.5,0.381081081 L31.25,0.381081081 C32.3016153,0.361540313 33.2720889,0.9532669 33.75,1.90540541 L37.375,8.25675676 L43.125,18.5459459 C43.3807647,18.9648706 43.5110602,19.4503682 43.5,19.9432432 C43.5093852,19.4104292 43.380016,18.8845607 43.125,18.4189189 L37.375,8.12972973 L33.75,1.77837838 C33.310649,0.774560603 32.3310998,0.127528611 31.25,0.127027027 L12.5,0.127027027 C11.4483847,0.107486259 10.4779111,0.699212846 10,1.65135135 L4.25,11.9405405 L0.625,18.2918919 C0.383868543,18.7629961 0.255395323,19.2852223 0.25,19.8162162 C0.256532268,19.3256929 0.385566858,18.8448938 0.625,18.4189189 L4.25,12.1945946 Z M12.5,38.9972973 C11.4483847,39.0168381 10.4779111,38.4251115 10,37.472973 L4.25,27.1837838 L0.625,20.8324324 C0.369235324,20.4135078 0.238939789,19.9280102 0.25,19.4351351 C0.240614794,19.9679491 0.369984043,20.4938176 0.625,20.9594595 L4.25,27.3108108 L10,37.727027 C10.5180163,38.6401332 11.4634024,39.2165632 12.5,39.2513514 L24.125,39.2513514 L24.25,38.9972973 L12.5,38.9972973 Z M43.5,19.5621622 C43.4934677,20.0526855 43.3644331,20.5334846 43.125,20.9594595 L37.375,31.2486486 L33.75,37.6 C33.2319837,38.5131062 32.2865976,39.0895362 31.25,39.1243243 L24.25,39.1243243 L24.125,39.3783784 L31.25,39.3783784 C32.3016153,39.3979191 33.2720889,38.8061926 33.75,37.8540541 L37.375,31.5027027 L43.125,21.2135135 C43.3672248,20.697517 43.4952275,20.133844 43.5,19.5621622 Z" id="path347"></path>
                        </g>
                        <path d="M43.125,21.9756757 L37.375,11.6864865 L33.75,5.33513514 C33.2018997,4.47070471 32.2619001,3.94532115 31.25,3.93783784 L12.5,3.93783784 C11.4483847,3.91829707 10.4779111,4.51002366 10,5.46216216 L4.25,15.7513514 L0.625,22.1027027 C0.123983589,23.0100319 0.123983589,24.1169951 0.625,25.0243243 L10,41.5378378 C10.5180163,42.450944 11.4634024,43.027374 12.5,43.0621622 L31.25,43.0621622 C32.3016153,43.0817029 33.2720889,42.4899763 33.75,41.5378378 L43.125,24.8972973 C43.6260164,23.9899681 43.6260164,22.8830049 43.125,21.9756757 Z M21.75,29.3432432 C18.5743627,29.3432432 16,26.7271341 16,23.5 C16,20.2728659 18.5743627,17.6567568 21.75,17.6567568 C24.9256373,17.6567568 27.5,20.2728659 27.5,23.5 C27.5033283,25.0507589 26.8985953,26.5389766 25.8195388,27.6355313 C24.7404823,28.732086 23.2760127,29.3466255 21.75,29.3432432 Z" id="path356" fill="url(#radialGradient-7)" fill-rule="nonzero"></path>
                        <rect id="rect358" x="0.25" y="0" width="43.25" height="46.872973"></rect>
                    </g>
                </g>
            </g>
        </g>
    </g>
</svg>