<?xml version="1.0" encoding="UTF-8"?>
<svg width="811px" height="604px" viewBox="0 0 811 604" version="1.1" xmlns="http://www.w3.org/2000/svg" xmlns:xlink="http://www.w3.org/1999/xlink">
    <!-- Generator: Sketch 50.2 (55047) - http://www.bohemiancoding.com/sketch -->
    <title>BG Image</title>
    <desc>Created with Sketch.</desc>
    <defs>
        <polygon id="path-1" points="4.80141515 2.8224 129.505138 2.8224 129.505138 177.005733 4.80141515 177.005733"></polygon>
    </defs>
    <g id="Welcome" stroke="none" stroke-width="1" fill="none" fill-rule="evenodd">
        <g id="Home" transform="translate(-94.000000, 0.000000)">
            <g id="BG-Image" transform="translate(55.000000, -85.000000)">
                <path d="M436.192254,381.042188 C453.396358,390.372398 475.618327,383.913021 484.937217,365.97031 L538.700044,264.773417 C548.018934,247.548414 541.567395,225.299452 523.646452,215.969242 C506.442348,206.639032 484.220379,213.098408 474.901489,231.041119 L421.138662,332.238012 C412.53661,350.180724 418.988149,371.711978 436.192254,381.042188" id="Fill-1" fill-opacity="0.149999991" fill="#FFFFFF"></path>
                <path d="M580.27663,617.168271 C580.27663,616.450563 580.27663,616.450563 580.993468,615.732854 C588.161845,597.072434 578.842955,576.258889 560.205175,569.799513 C543.717908,563.340137 525.080128,570.517221 516.478075,585.589099 L490.671918,637.264108 C482.069866,655.20682 489.238243,676.738073 507.159185,685.350575 C525.080128,693.963077 545.868421,686.785992 555.187311,669.560989 L580.27663,617.168271 Z" id="Fill-3" fill-opacity="0.149999991" fill="#FFFFFF"></path>
                <path d="M322.215061,658.077653 L362.357971,583.435974 L414.687123,485.109914 C424.006013,467.884911 417.554474,445.635949 399.633531,436.305739 C382.429427,426.975529 360.207458,433.434905 350.888568,451.377617 L322.215061,505.92346 L120.066831,76.0160916 L248.380778,76.0160916 L365.94216,294.199464 L367.375835,293.481755 L406.801908,219.557784 L290.674202,4.24524555 L0.354936655,4.24524555 L172.395983,355.922391 L321.498223,659.51307 L322.215061,658.077653 Z" id="Fill-5" fill-opacity="0.149999991" fill="#FFFFFF"></path>
                <path d="M851.958115,79.6046339 L887.8,8.55149631 L737.980922,8.55149631 C717.909467,8.55149631 702.139038,24.3410825 702.139038,44.4369194 C702.139038,64.5327563 717.909467,80.3223424 737.980922,80.3223424 L780.991184,80.3223424 C785.29221,99.7004709 804.646828,111.901515 824.001445,107.595264 C834.037173,105.442139 842.639225,98.9827624 847.657089,90.3702609 L848.373927,89.6525524 L851.958115,79.6046339 Z" id="Fill-7" fill-opacity="0.149999991" fill="#FFFFFF"></path>
                <path d="M765.220755,251.136956 L793.894262,193.002571 C803.213152,175.059859 796.044775,153.528605 778.123833,144.916104 C760.202891,136.303602 738.69776,142.762979 730.095708,160.70569 L730.095708,161.423398 L679.200231,264.055708 C670.598179,281.99842 677.766556,303.529674 695.687498,312.142175 C713.608441,320.754677 734.396734,313.577592 743.715624,296.352589 L765.220755,251.136956 Z" id="Fill-9" fill-opacity="0.149999991" fill="#FFFFFF"></path>
                <path d="M674.899205,429.846363 L687.802284,404.726567 C696.404336,386.783855 689.235959,365.252601 672.031855,356.6401 C654.82775,348.027598 632.605781,355.204683 624.003729,372.429686 L573.108253,475.061996 C564.506201,493.004707 571.674578,514.535961 589.59552,523.148463 C607.516462,531.760964 628.304755,524.58388 637.623645,507.358877 L674.899205,429.846363 Z" id="Fill-11" fill-opacity="0.149999991" fill="#FFFFFF"></path>
                <g id="Group-15" opacity="0.147748162" transform="translate(524.000000, 0.000000)">
                    <mask id="mask-2" fill="white">
                        <use xlink:href="#path-1"></use>
                    </mask>
                    <g id="Clip-14"></g>
                    <path d="M23.6210526,172.7388 C40.8,182.0988 62.2736842,175.6188 71.5789474,157.6188 L125.263158,56.0988 C134.568421,38.8188 128.126316,16.4988 110.231579,7.1388 C105.221053,4.2588 99.4947368,2.8188 93.7684211,2.8188 L71.5789474,2.8188 L8.58947368,123.7788 C-1.42108547e-14,141.7788 6.44210526,162.6588 23.6210526,172.7388" id="Fill-13" fill="#FFFFFF" mask="url(#mask-2)"></path>
                </g>
            </g>
        </g>
    </g>
</svg>
