<?xml version="1.0" encoding="UTF-8"?>
<svg width="77px" height="65px" viewBox="0 0 77 65" version="1.1" xmlns="http://www.w3.org/2000/svg" xmlns:xlink="http://www.w3.org/1999/xlink">
    <!-- Generator: Sketch 50.2 (55047) - http://www.bohemiancoding.com/sketch -->
    <title>Asset 6</title>
    <desc>Created with Sketch.</desc>
    <defs></defs>
    <g id="Welcome" stroke="none" stroke-width="1" fill="none" fill-rule="evenodd">
        <g id="Home" transform="translate(-770.000000, -1071.000000)">
            <g id="Asset-6" transform="translate(770.000000, 1071.000000)">
                <polygon id="Shape" fill="#FFFFFF" fill-rule="nonzero" points="48.1550847 36.179661 46.5245763 36.179661 46.5245763 35.0779661 22.3313559 18.7177966 17.0211864 18.7177966 17.6050847 21.1635593 17.0211864 32.4669492 17.0211864 37.1822034 16.3161017 46.2161017 62.9949153 46.2161017"></polygon>
                <polygon id="Shape" fill="#00797F" fill-rule="nonzero" points="3.8779661 10.3338983 3.8779661 7.7559322 2.58898305 7.7559322 0 7.7559322 0 10.3338983 0 15.5118644 3.8779661 15.5118644"></polygon>
                <polygon id="Shape" fill="#00797F" fill-rule="nonzero" points="9.04491525 34.890678 0 34.890678 0 38.7686441 9.04491525 38.7686441"></polygon>
                <polygon id="Shape" fill="#00797F" fill-rule="nonzero" points="3.8779661 28.4347458 3.8779661 21.9677966 0 21.9677966 0 28.4347458 0 29.7237288 3.8779661 29.7237288"></polygon>
                <polygon id="Shape" fill="#00797F" fill-rule="nonzero" points="42.6466102 3.8779661 45.2245763 3.8779661 45.2245763 0 42.6466102 0 38.7686441 0 36.179661 0 36.179661 3.8779661 38.7686441 3.8779661"></polygon>
                <polygon id="Shape" fill="#00797F" fill-rule="nonzero" points="29.7237288 3.8779661 32.3016949 3.8779661 32.3016949 0 29.7237288 0 24.5567797 0 23.2567797 0 23.2567797 3.8779661 24.5567797 3.8779661"></polygon>
                <polygon id="Shape" fill="#00797F" fill-rule="nonzero" points="58.1584746 3.8779661 58.1584746 0 51.6915254 0 49.1025424 0 49.1025424 3.8779661 51.6915254 3.8779661"></polygon>
                <polygon id="Shape" fill="#00797F" fill-rule="nonzero" points="3.8779661 3.8779661 3.8779661 0 0 0 0 3.8779661"></polygon>
                <polygon id="Shape" fill="#00797F" fill-rule="nonzero" points="16.8008475 3.8779661 18.0898305 3.8779661 18.0898305 0 16.8008475 0 10.3338983 0 9.04491525 0 9.04491525 1.28898305 9.04491525 3.8779661 10.3338983 3.8779661"></polygon>
                <polygon id="Shape" points="18.6516949 20.9322034 18.6516949 20.9322034 18.6516949 18.7177966"></polygon>
                <polygon id="Shape" fill="#3ACCC5" fill-rule="nonzero" points="18.6847458 46.2161017 18.6516949 20.9322034 18.6516949 20.9322034 18.6516949 18.7177966 22.3313559 18.7177966 9.0559322 9.75 9.0559322 20.9322034 9.04491525 20.9322034 9.04491525 34.890678 9.04491525 36.179661 9.04491525 38.7686441 9.04491525 50.920339 9.0559322 50.920339 9.0559322 55.4483051 37.8652542 55.4483051 37.8652542 60.020339 23.4330508 60.020339 23.4330508 64.6144068 61.8711864 64.6144068 61.8711864 60.0313559 47.45 60.0313559 47.45 55.459322 76.2483051 55.4483051 76.2483051 55.1728814 62.9949153 46.2161017"></polygon>
                <rect id="Rectangle-path" fill="#00797F" fill-rule="nonzero" x="52.3525424" y="7.7559322" width="4.80338983" height="1.75169492"></rect>
                <polygon id="Shape" fill="#00AAB2" fill-rule="nonzero" points="66.0025424 9.50762712 57.1559322 9.50762712 52.3525424 9.50762712 9.0559322 9.50762712 9.0559322 9.75 22.3313559 18.7177966 66.6635593 18.7177966 66.6635593 46.2161017 62.9949153 46.2161017 76.2483051 55.1728814 76.2483051 9.50762712"></polygon>
                <polygon id="Shape" fill="#FFFFFF" fill-rule="nonzero" points="46.5245763 36.179661 48.1550847 36.179661 46.5245763 35.0779661"></polygon>
                <path d="M46.5245763,34.890678 L49.1025424,34.890678 L49.1025424,36.179661 L48.1550847,36.179661 L62.9949153,46.2711864 L66.6635593,46.2711864 L66.6635593,18.7288136 L22.3313559,18.7288136 L46.5686441,35.0889831 L46.5245763,34.890678 Z M52.9805085,21.9677966 L56.8584746,21.9677966 L56.8584746,29.679661 L52.9805085,29.679661 L52.9805085,21.9677966 Z M52.9805085,34.890678 L56.8584746,34.890678 L56.8584746,38.7686441 L52.9805085,38.7686441 L52.9805085,34.890678 Z" id="Shape" fill="#E8E8E8" fill-rule="nonzero"></path>
                <rect id="Rectangle-path" fill="#E8E8E8" fill-rule="nonzero" x="52.9805085" y="34.890678" width="3.8779661" height="3.8779661"></rect>
                <rect id="Rectangle-path" fill="#E8E8E8" fill-rule="nonzero" x="52.9805085" y="21.9677966" width="3.8779661" height="7.7559322"></rect>
                <polygon id="Shape" fill="#E8E8E8" fill-rule="nonzero" points="49.1025424 34.890678 46.5245763 34.890678 46.5245763 35.0779661 48.1550847 36.179661 49.1025424 36.179661"></polygon>
            </g>
        </g>
    </g>
</svg>