<?xml version="1.0" encoding="UTF-8"?>
<svg width="100px" height="84px" viewBox="0 0 100 84" version="1.1" xmlns="http://www.w3.org/2000/svg" xmlns:xlink="http://www.w3.org/1999/xlink">
    <!-- Generator: Sketch 50.2 (55047) - http://www.bohemiancoding.com/sketch -->
    <title>Group 20</title>
    <desc>Created with Sketch.</desc>
    <defs></defs>
    <g id="Welcome" stroke="none" stroke-width="1" fill="none" fill-rule="evenodd">
        <g id="Home" transform="translate(-156.000000, -1054.000000)">
            <g id="Group-20" transform="translate(156.000000, 1054.000000)">
                <g id="Group-5">
                    <g id="Group-3">
                        <path d="M6.41666667,10.1388889 L6.44444444,10.1111111 L6.41666667,10.1388889 C6.02777778,10.4444444 5.72222222,10.8611111 5.52777778,11.3333333 C5.72222222,10.8611111 6.02777778,10.4444444 6.41666667,10.1388889 Z" id="Shape"></path>
                        <path d="M5.38888889,11.8333333 C5.43888889,11.6666667 5.53888889,11.5 5.68888889,11.3333333 C5.53888889,11.5 5.43888889,11.6666667 5.38888889,11.8333333 Z" id="Shape"></path>
                        <path d="M16.3333333,48.8277778 C16.1794872,48.8277778 15.9871795,48.8277778 15.8333333,48.7777778 C16.025641,48.7777778 16.1794872,48.8277778 16.3333333,48.8277778 Z" id="Shape"></path>
                        <path d="M44.0833333,9.86111111 L26.9722222,1.66666667 C26.9166667,1.63888889 26.8611111,1.61111111 26.8055556,1.58333333 C26.6944444,1.52777778 26.5833333,1.5 26.4444444,1.47222222 C26.3333333,1.44444444 26.2222222,1.41666667 26.1111111,1.41666667 C25.9444444,1.38888889 25.75,1.38888889 25.5833333,1.38888889 C25.2222222,1.38888889 24.8888889,1.38888889 24.5277778,1.44444444 C24.4166667,1.47222222 24.3055556,1.47222222 24.1666667,1.5 L7.05555556,9.75 C6.86111111,9.83333333 6.63888889,9.97222222 6.47222222,10.1111111 L6.44444444,10.1388889 L15.3055556,27.9722222 L8.63888889,14.3611111 L19.8888889,14.3611111 L24.3888889,22.6666667 L22.8333333,25.5555556 L22.7777778,25.5833333 L18.2222222,17.1388889 L13.25,17.1388889 L21.0833333,33.75 L22.1944444,31.6388889 C22.5555556,30.9722222 23.3888889,30.6944444 24.0833333,31.0555556 C24.75,31.4166667 25.0277778,32.25 24.6666667,32.9444444 L22.6388889,36.75 L21.0833333,39.6388889 L25.6388889,48.7777778 L29.9444444,40.2777778 C29.5,40.8888889 28.6111111,41.0277778 28,40.5833333 C27.4444444,40.1944444 27.2777778,39.4444444 27.5833333,38.8611111 L28.5833333,36.8611111 C28.9722222,36.1944444 29.8055556,35.9722222 30.4722222,36.3611111 C31.0555556,36.6944444 31.3055556,37.4166667 31.0833333,38.0555556 L33.1111111,34.0555556 C32.6666667,34.6666667 31.7777778,34.8055556 31.1666667,34.3333333 C30.6388889,33.9444444 30.4444444,33.2222222 30.75,32.6111111 L32.75,28.6388889 C33.0833333,27.9444444 33.9166667,27.6666667 34.6111111,28.0277778 C35.3055556,28.3888889 35.5833333,29.1944444 35.2222222,29.8888889 L34.7222222,30.8611111 L37.2777778,25.8055556 C36.8333333,26.4444444 35.9722222,26.6111111 35.3611111,26.1666667 C34.7777778,25.7777778 34.5833333,25.0277778 34.8888889,24.4166667 L36.8611111,20.4444444 C37.1944444,19.75 38.0277778,19.4722222 38.7222222,19.8333333 C39.4166667,20.1666667 39.6944444,21 39.3333333,21.6944444 L38.2222222,23.9444444 L41.3888889,17.6944444 C41,18.3611111 40.1666667,18.6111111 39.5,18.2222222 C39.1666667,18.0277778 38.9166667,17.6944444 38.8333333,17.3055556 L37.1666667,17.3055556 C36.3888889,17.3055556 35.7777778,16.6944444 35.7777778,15.9166667 C35.7777778,15.1388889 36.3888889,14.5277778 37.1666667,14.5277778 L42.9722222,14.5277778 L41.5833333,17.2777778 L45,10.5277778 C44.8888889,10.4166667 44.7777778,10.3333333 44.6666667,10.25 C44.5,10.1111111 44.3055556,9.97222222 44.0833333,9.86111111 Z M29.4722222,24.4444444 L27.3888889,28.3611111 C27.0277778,29.0277778 26.1944444,29.3055556 25.5,28.9444444 C24.8055556,28.5833333 24.5555556,27.75 24.9166667,27.0555556 L27,23.1388889 C27.3611111,22.4722222 28.1944444,22.1944444 28.8888889,22.5555556 C29.5833333,22.9166667 29.8333333,23.7777778 29.4722222,24.4444444 Z M33.75,16.3333333 L31.6666667,20.2777778 C31.3055556,20.9444444 30.4722222,21.2222222 29.7777778,20.8611111 C29.1111111,20.5 28.8333333,19.6666667 29.1944444,18.9722222 L31.6388889,14.3055556 L32.5277778,14.3055556 C32.75,14.3055556 32.9722222,14.3611111 33.1666667,14.4722222 C33.8611111,14.8333333 34.1111111,15.6666667 33.75,16.3333333 C33.75,16.3333333 33.75,16.3333333 33.75,16.3333333 Z" id="Shape" fill="#00AAB2" fill-rule="nonzero"></path>
                        <path d="M6.47222222,10.1111111 C6.66666667,9.97222222 6.86111111,9.86111111 7.05555556,9.75 L24.1666667,1.5 C24.2777778,1.47222222 24.3888889,1.44444444 24.5,1.44444444 C24.8611111,1.38888889 25.2222222,1.38888889 25.5833333,1.38888889 C25.75,1.38888889 25.9444444,1.38888889 26.1111111,1.41666667 C26.2222222,1.44444444 26.3611111,1.44444444 26.4722222,1.47222222 C26.5833333,1.5 26.7222222,1.52777778 26.8333333,1.58333333 C26.8888889,1.61111111 26.9444444,1.63888889 27,1.66666667 L44.1111111,9.86111111 C44.3333333,9.97222222 44.5277778,10.1111111 44.6944444,10.25 C44.8055556,10.3333333 44.9166667,10.4166667 45.0277778,10.5277778 L45.5555556,9.5 C45.2777778,9.27777778 44.9722222,9.05555556 44.6388889,8.88888889 L44.6111111,8.88888889 L44.5833333,8.88888889 L27.4722222,0.666666667 C26.8888889,0.388888889 26.2222222,0.25 25.5833333,0.277777778 C25.0277778,0.25 24.4722222,0.305555556 23.9166667,0.416666667 L23.8055556,0.444444444 L23.6944444,0.5 L6.58333333,8.75 C6.36111111,8.86111111 6.13888889,9 5.94444444,9.13888889 L6.44444444,10.1388889 L6.47222222,10.1111111 Z" id="Shape" fill="#FFFFFF" fill-rule="nonzero"></path>
                        <path d="M51.25,30.1666667 L51.2222222,30.0555556 L46.9444444,11.7222222 L46.9444444,11.6666667 L46.9444444,11.6388889 C46.6944444,10.8333333 46.1944444,10.0833333 45.5277778,9.55555556 L45,10.5833333 C45.3055556,10.8888889 45.5833333,11.25 45.75,11.6388889 C45.8055556,11.75 45.8333333,11.8611111 45.8611111,11.9722222 L50.1111111,30.3055556 C50.1388889,30.5555556 50.1388889,30.7777778 50.1388889,31.0277778 C50.1388889,31.25 50.0833333,31.4444444 50.0555556,31.6666667 C50.0555556,31.7222222 50.0277778,31.7777778 50.0277778,31.8333333 C49.9166667,32.25 49.7222222,32.6666667 49.4722222,33.0277778 L44.3611111,39.3611111 L37.6388889,47.6666667 C37.1944444,48.2777778 36.5,48.6666667 35.75,48.7777778 C35.5277778,48.8055556 35.2777778,48.8333333 35.0555556,48.8333333 L25.6388889,48.8333333 L29.9166667,49.9444444 L35.0555556,49.9444444 C36.5277778,49.9444444 37.75,49.3611111 38.5277778,48.3333333 L50.3611111,33.6944444 L50.3888889,33.6666667 L50.4166667,33.6388889 C51.1111111,32.6111111 51.4166667,31.3888889 51.25,30.1666667 Z" id="Shape" fill="#FFFFFF" fill-rule="nonzero"></path>
                        <path d="M16.1944444,48.8055556 C16.0833333,48.8055556 15.9444444,48.7777778 15.8333333,48.7777778 C15.6666667,48.75 15.5277778,48.7222222 15.3611111,48.6666667 C15.2777778,48.6388889 15.1944444,48.6111111 15.1111111,48.5833333 C14.9444444,48.5277778 14.7777778,48.4444444 14.6388889,48.3888889 C14.4166667,48.2777778 14.1944444,48.1388889 13.9722222,47.9722222 C13.8333333,47.8611111 13.6944444,47.75 13.5833333,47.6388889 L9.63888889,42.75 L1.77777778,32.9722222 C1.44444444,32.5 1.22222222,31.9444444 1.13888889,31.3333333 C1.11111111,31.2222222 1.11111111,31.1111111 1.11111111,31 C1.11111111,30.75 1.11111111,30.5277778 1.16666667,30.2777778 L5.38888889,11.8333333 C5.41666667,11.6666667 5.47222222,11.5 5.55555556,11.3333333 C5.75,10.8611111 6.05555556,10.4722222 6.44444444,10.1388889 L5.94444444,9.13888889 C5.11111111,9.72222222 4.52777778,10.5833333 4.30555556,11.5833333 L0.0833333333,30.0277778 L0.0833333333,30.0555556 L0.0833333333,30.0833333 C-0.138888889,31.3333333 0.166666667,32.5833333 0.888888889,33.6111111 L0.916666667,33.6388889 L0.944444444,33.6666667 L12.75,48.3333333 L12.7777778,48.3888889 L12.8333333,48.4166667 C13.7222222,49.3055556 14.8888889,49.8333333 16.1388889,49.9166667 L25.6388889,49.9166667 L25.6388889,48.8055556 L16.1944444,48.8055556 Z" id="Shape" fill="#FFFFFF" fill-rule="nonzero"></path>
                        <polygon id="Shape" fill="#FFFFFF" fill-rule="nonzero" points="25.6388889 48.8055556 25.6388889 49.9166667 29.9166667 49.9166667"></polygon>
                        <path d="M21.0555556,39.7222222 L15.3055556,28 L6.41666667,10.1388889 C6.02777778,10.4444444 5.72222222,10.8611111 5.52777778,11.3333333 C5.47222222,11.5 5.41666667,11.6666667 5.36111111,11.8333333 L1.16666667,30.2777778 C1.11111111,30.5277778 1.11111111,30.75 1.11111111,31 C1.11111111,31.1111111 1.11111111,31.2222222 1.13888889,31.3611111 C1.22222222,31.9444444 1.44444444,32.5 1.77777778,33 L9.66666667,42.7777778 L13.6111111,47.6111111 C13.7222222,47.7222222 13.8611111,47.8333333 14,47.9444444 C14.1944444,48.1111111 14.4166667,48.25 14.6666667,48.3611111 C14.8333333,48.4444444 14.9722222,48.5 15.1388889,48.5555556 C15.2222222,48.5833333 15.3055556,48.6111111 15.3888889,48.6388889 C15.5277778,48.6944444 15.6944444,48.7222222 15.8611111,48.75 C15.9722222,48.7777778 16.1111111,48.7777778 16.2222222,48.7777778 L25.6666667,48.7777778 L21.1388889,39.6388889 L21.0555556,39.7222222 Z" id="Shape" fill="#00797F" fill-rule="nonzero"></path>
                        <path d="M1.11111111,31 C1.11111111,30.75 1.11111111,30.5277778 1.21111111,30.2777778" id="Shape"></path>
                        <path d="M14.1111111,48.1388889 C13.9325397,47.9722222 13.7539683,47.8055556 13.6111111,47.6388889 C13.7539683,47.8055556 13.9325397,47.9722222 14.1111111,48.1388889 Z" id="Shape" fill="#00797F" fill-rule="nonzero"></path>
                        <path d="M14.6666667,48.4444444 C14.4444444,48.3111111 14.2222222,48.1444444 14,47.9444444" id="Shape"></path>
                        <path d="M13.6111111,47.6111111 L9.66666667,42.75" id="Shape"></path>
                        <path d="M15.5888889,48.7333333 C15.4388889,48.6833333 15.2888889,48.6333333 15.1388889,48.5833333" id="Shape"></path>
                        <path d="M15.1666667,48.7388889 C14.9901961,48.6388889 14.8137255,48.4888889 14.6666667,48.3888889 C14.8137255,48.4888889 14.9901961,48.6388889 15.1666667,48.7388889 Z" id="Shape" fill="#00797F" fill-rule="nonzero"></path>
                        <path d="M41.4166667,17.6388889 L38.25,23.8888889 L37.3888889,25.6111111 C37.3611111,25.6666667 37.3333333,25.7222222 37.3055556,25.75 L34.75,30.7777778 L33.25,33.7777778 C33.2222222,33.8333333 33.1666667,33.9166667 33.1388889,33.9722222 L31.1111111,38 C31.1111111,38.0277778 31.1111111,38.0277778 31.0833333,38.0555556 L30.0833333,40.0555556 C30.0555556,40.1111111 30,40.1944444 29.9722222,40.25 L25.6666667,48.75 L35.0833333,48.75 C35.3055556,48.75 35.5555556,48.7222222 35.7777778,48.6944444 C36.5277778,48.5833333 37.1944444,48.1944444 37.6666667,47.5833333 L44.3888889,39.2777778 L49.5,32.9444444 C49.75,32.5833333 49.9444444,32.1944444 50.0555556,31.75 C50.0833333,31.6944444 50.0833333,31.6388889 50.0833333,31.5833333 C50.1388889,31.3611111 50.1666667,31.1666667 50.1666667,30.9444444 C50.1666667,30.6944444 50.1666667,30.4722222 50.1388889,30.2222222 L45.8888889,11.9444444 C45.8611111,11.8333333 45.8055556,11.7222222 45.7777778,11.6111111 C45.6111111,11.2222222 45.3333333,10.8611111 45.0277778,10.5555556 L41.6111111,17.2777778 L41.4166667,17.6388889 Z" id="Shape" fill="#3ACCC5" fill-rule="nonzero"></path>
                        <path d="M50.2333333,31 C50.2333333,31.2222222 50.1333333,31.4166667 50.0833333,31.6388889" id="Shape"></path>
                        <path d="M50.1833333,31.8055556 C50.0833333,32 49.9833333,32.1944444 49.8333333,32.3611111" id="Shape"></path>
                        <path d="M35.75,48.75 C36.5,48.6388889 37.1666667,48.25 37.6388889,47.6388889 L44.3611111,39.3333333" id="Shape"></path>
                        <path d="M50.1666667,30.2777778 C50.2166667,30.5277778 50.2166667,30.75 50.2166667,31" id="Shape"></path>
                        <path d="M28.8888889,22.5555556 C28.2222222,22.1944444 27.3611111,22.4444444 27,23.1388889 C27,23.1388889 27,23.1388889 27,23.1388889 L24.9166667,27.0555556 C24.5555556,27.7222222 24.8055556,28.5833333 25.5,28.9444444 C26.1666667,29.3055556 27.0277778,29.0555556 27.3888889,28.3611111 L29.4722222,24.4444444 C29.8333333,23.7777778 29.5555556,22.9166667 28.8888889,22.5555556 C28.8888889,22.5555556 28.8888889,22.5555556 28.8888889,22.5555556 Z" id="Shape" fill="#FFFFFF" fill-rule="nonzero"></path>
                        <path d="M30.4444444,36.2222222 C29.75,35.8888889 28.9166667,36.1666667 28.5833333,36.8333333 C28.5833333,36.8333333 28.5833333,36.8333333 28.5833333,36.8333333 L27.5833333,38.8333333 C27.25,39.5277778 27.5277778,40.3611111 28.2222222,40.6944444 C28.8333333,41 29.5555556,40.8055556 29.9444444,40.2777778 L31.0833333,38.0277778 C31.3888889,37.3611111 31.1111111,36.5555556 30.4444444,36.2222222 Z" id="Shape" fill="#FFFFFF" fill-rule="nonzero"></path>
                        <path d="M31.0833333,38.0833333 C31.0833333,38.0555556 31.0833333,38.0555556 31.1111111,38.0277778 L29.9722222,40.2777778 C30.0277778,40.2222222 30.0555556,40.1666667 30.0833333,40.0833333 L31.0833333,38.0833333 Z" id="Shape" fill="#FFFFFF" fill-rule="nonzero"></path>
                        <path d="M22.6388889,36.7777778 L24.6666667,32.9722222 C25.0277778,32.3055556 24.7777778,31.4444444 24.0833333,31.0833333 C23.4166667,30.7222222 22.5555556,30.9722222 22.1944444,31.6666667 L21.0833333,33.7777778 L13.25,17.1388889 L18.2222222,17.1388889 L22.7777778,25.5833333 L22.8333333,25.5555556 L24.3611111,22.6944444 L19.8611111,14.3611111 L8.61111111,14.3611111 L15.2777778,27.9722222 L21.0833333,39.6388889 L22.6388889,36.7777778 Z" id="Shape" fill="#FFFFFF" fill-rule="nonzero"></path>
                        <polygon id="Shape" fill="#FFFFFF" fill-rule="nonzero" points="21.0833333 39.6666667 15.3055556 28 21.0555556 39.7222222"></polygon>
                        <path d="M42.9722222,14.5277778 L37.1666667,14.5277778 C36.3888889,14.5277778 35.7777778,15.1388889 35.7777778,15.9166667 C35.7777778,16.6944444 36.3888889,17.3055556 37.1666667,17.3055556 L38.8333333,17.3055556 C39,18.0555556 39.75,18.5277778 40.5,18.3611111 C40.8888889,18.2777778 41.2222222,18.0277778 41.4166667,17.6944444 L41.6111111,17.3055556 L42.9722222,14.5277778 Z" id="Shape" fill="#FFFFFF" fill-rule="nonzero"></path>
                        <polygon id="Shape" fill="#FFFFFF" fill-rule="nonzero" points="41.7666667 17.2777778 41.4166667 17.7777778 41.4666667 17.7420635"></polygon>
                        <path d="M39.3611111,21.6666667 C39.7222222,20.9722222 39.4444444,20.1388889 38.75,19.8055556 C38.0555556,19.4722222 37.2222222,19.7222222 36.8888889,20.4166667 C36.8888889,20.4166667 36.8888889,20.4166667 36.8888889,20.4444444 L34.9166667,24.4166667 C34.5833333,25.1111111 34.8611111,25.9444444 35.5555556,26.2777778 C36.1666667,26.5833333 36.9166667,26.3888889 37.3055556,25.8055556 L38.25,23.9166667 L39.3611111,21.6666667 Z" id="Shape" fill="#FFFFFF" fill-rule="nonzero"></path>
                        <path d="M38.25,23.9166667 L37.3055556,25.8055556 C37.3333333,25.75 37.3611111,25.6944444 37.3888889,25.6666667 L38.25,23.9166667 Z" id="Shape" fill="#FFFFFF" fill-rule="nonzero"></path>
                        <path d="M35.2222222,29.8611111 C35.5555556,29.1666667 35.2777778,28.3333333 34.6111111,28 C33.9444444,27.6666667 33.0833333,27.9444444 32.75,28.6111111 L30.7777778,32.5833333 C30.4444444,33.2777778 30.7222222,34.1111111 31.4166667,34.4444444 C32.0277778,34.75 32.75,34.5555556 33.1388889,34.0277778 L34.75,30.8333333 L35.2222222,29.8611111 Z" id="Shape" fill="#FFFFFF" fill-rule="nonzero"></path>
                        <path d="M34.75,30.8333333 L33.1388889,34.0277778 C33.1944444,33.9722222 33.2222222,33.8888889 33.25,33.8333333 L34.75,30.8333333 Z" id="Shape" fill="#FFFFFF" fill-rule="nonzero"></path>
                        <path d="M33.1666667,14.4722222 C32.9722222,14.3611111 32.75,14.3055556 32.5277778,14.3055556 L31.6666667,14.3055556 L29.2222222,18.9722222 C28.7777778,19.6111111 28.9444444,20.4722222 29.5833333,20.9166667 C30.2222222,21.3611111 31.0833333,21.1944444 31.5277778,20.5555556 C31.5833333,20.4722222 31.6388889,20.3888889 31.6666667,20.2777778 L33.75,16.3611111 C34.1111111,15.6666667 33.8611111,14.8333333 33.1666667,14.4722222 C33.1944444,14.4722222 33.1666667,14.4722222 33.1666667,14.4722222 Z" id="Shape" fill="#FFFFFF" fill-rule="nonzero"></path>
                    </g>
                    <g id="kubernetes-logo" transform="translate(49.000000, 34.000000)" fill-rule="nonzero" stroke="#FFFFFF">
                        <path d="M25.0103747,0.0759428363 C24.5663602,0.0983652965 24.1313202,0.208725767 23.7307764,0.400549927 L6.26973034,8.76421952 C5.35424761,9.20250682 4.68930221,10.0314149 4.46310721,11.0163211 L0.155349459,29.8032363 C-0.0456174975,30.6777421 0.117904633,31.5958884 0.608680109,32.3486037 C0.667582046,32.4396832 0.730930525,32.5278429 0.798498361,32.6127667 L12.8843382,47.6767743 C13.5180513,48.4663841 14.4788812,48.9261504 15.4948974,48.925952 L34.8764576,48.9214746 C35.8920938,48.9222167 36.8528559,48.4633067 37.4870168,47.6745357 L49.5683903,32.6082893 C50.2024425,31.8182838 50.4400018,30.7841212 50.2137724,29.798759 L45.8993151,11.0118438 C45.6731201,10.0269376 45.0081747,9.19802948 44.092692,8.75974218 L26.6294128,0.400549927 C26.1255891,0.159250349 25.5688788,0.047633388 25.0103747,0.0759428363 Z" id="path3055" fill="#326CE5"></path>
                        <path d="M25.1833932,6.46937687 C24.6062057,6.46943561 24.1382077,6.99060434 24.1382763,7.63348506 C24.138277,7.64335168 24.1402915,7.65277988 24.1405059,7.66258776 C24.1396555,7.74993958 24.1354464,7.85517496 24.1382763,7.93122811 C24.1520411,8.30202344 24.2326691,8.58581439 24.2811982,8.92743608 C24.3691153,9.65861494 24.4427837,10.2647177 24.3973224,10.8280666 C24.3531102,11.0405002 24.1970258,11.2347816 24.0578827,11.3698246 L24.0333179,11.8130812 C23.4061177,11.8651738 22.774722,11.960564 22.144068,12.1041082 C19.4303648,12.721779 17.0939142,14.1230708 15.3150773,16.015064 C15.199652,15.9361246 14.9977169,15.7909005 14.9376703,15.7464237 C14.7510736,15.7716844 14.5624851,15.8294006 14.316853,15.6859796 C13.8491473,15.3703716 13.4231712,14.9347229 12.9077316,14.4099379 C12.6715545,14.1589068 12.500524,13.9198656 12.2199196,13.677893 C12.1561964,13.622942 12.058948,13.5486196 11.9876714,13.4920834 C11.7682947,13.3167458 11.5095473,13.2253042 11.2596626,13.216727 C10.9383818,13.2056992 10.6290951,13.3316227 10.4266954,13.5861075 C10.0668743,14.0385251 10.1820759,14.7300175 10.6835083,15.1307895 C10.6885964,15.1348514 10.6940145,15.1380091 10.6991404,15.1419829 C10.7680445,15.1979761 10.8524214,15.2697217 10.9157565,15.3165991 C11.2135252,15.5369952 11.4855293,15.649817 11.782221,15.8247771 C12.4072903,16.2117489 12.9254804,16.5326165 13.3364976,16.9194865 C13.4970004,17.0909987 13.5250531,17.3932191 13.5464142,17.5239273 L13.8813876,17.823909 C12.088187,20.5292019 11.2582791,23.8707856 11.7487273,27.275572 L11.3110287,27.4031762 C11.1956692,27.5525123 11.0326589,27.7874924 10.8621608,27.8576261 C10.3244076,28.0274219 9.7191966,28.0897737 8.988543,28.1665625 C8.6455081,28.1951566 8.34952597,28.1780926 7.98585599,28.2471546 C7.90581397,28.2623547 7.79428909,28.2914817 7.7067115,28.3120761 C7.70366727,28.3127208 7.70082312,28.3136234 7.69777888,28.3143112 C7.69300529,28.3154215 7.68673387,28.3177426 7.68214679,28.3187885 C7.06614306,28.4679942 6.67042068,29.0355926 6.79781705,29.5948302 C6.92524343,30.1541988 7.52694353,30.4943649 8.14664322,30.3604552 C8.15111668,30.3594307 8.15761248,30.3592588 8.16227531,30.3582201 C8.16927134,30.3566154 8.17543056,30.3532126 8.18237371,30.3515076 C8.26875933,30.3324979 8.37701701,30.3113477 8.45258558,30.2910636 C8.8101292,30.1950959 9.06907524,30.0540898 9.39051106,29.9306378 C10.0820348,29.6820007 10.6547796,29.4742916 11.2127663,29.3933571 C11.4458134,29.3750594 11.6913484,29.537503 11.8134852,29.6060307 L12.269049,29.5276772 C13.3173946,32.7859494 15.5143898,35.4194988 18.2963368,37.0719938 L18.1065186,37.5286824 C18.1749368,37.7060151 18.2503989,37.9459489 18.1994336,38.1210752 C17.9965787,38.6484126 17.6491147,39.2050189 17.253453,39.8255574 C17.0618768,40.1122446 16.8658107,40.3347282 16.6929309,40.6628198 C16.6515621,40.7413265 16.5988754,40.8619231 16.5589415,40.9448921 C16.2903311,41.5210261 16.4873634,42.1845921 17.0033396,42.4336074 C17.5225572,42.6841865 18.1670439,42.4199003 18.4459583,41.8425987 C18.446387,41.841782 18.4477948,41.8411802 18.4481879,41.8403636 C18.4484737,41.8397188 18.447902,41.8387517 18.4481879,41.8381285 C18.4879152,41.7562791 18.5441978,41.6486926 18.5777109,41.5717268 C18.7257874,41.2316625 18.7750583,40.9402386 18.879187,40.6113375 C19.1557138,39.9150117 19.3076435,39.1843895 19.6883097,38.7291279 C19.7925484,38.6044623 19.962492,38.5565175 20.1386869,38.5092268 L20.3754014,38.0794022 C22.8006616,39.0126087 25.5153517,39.2630288 28.2271776,38.6457856 C28.8458132,38.5049773 29.4430463,38.3227402 30.0204018,38.1040276 C30.0869305,38.2223246 30.2105688,38.4497283 30.2437174,38.5069881 C30.4227693,38.5653855 30.6182044,38.595542 30.7774416,38.8315952 C31.0622416,39.319373 31.2570092,39.8964254 31.4942847,40.5934282 C31.5984305,40.9223235 31.6498996,41.2137603 31.7979939,41.5538174 C31.8317478,41.6313256 31.8877489,41.7404229 31.9275169,41.8224578 C32.2058446,42.4016349 32.8523736,42.6668245 33.3723688,42.4157052 C33.8882814,42.1665574 34.0855309,41.5030516 33.8167668,40.92699 C33.776828,40.8440238 33.7219167,40.7234222 33.6805443,40.6449176 C33.5076473,40.3168354 33.3116127,40.0965703 33.1200222,39.8098938 C32.7243277,39.1893762 32.3961452,38.673889 32.1932625,38.1465623 C32.1084304,37.8745858 32.2075747,37.7054377 32.2736561,37.5286895 C32.2340824,37.4832162 32.149399,37.2263731 32.0994699,37.105581 C34.9905958,35.3942946 37.1230746,32.6625353 38.1245246,29.5075364 C38.2597574,29.5288428 38.4948026,29.5705315 38.5711558,29.5858898 C38.7283371,29.4819654 38.8728598,29.3463686 39.1562426,29.3687389 C39.7142329,29.449644 40.2869613,29.6574183 40.9784978,29.9060196 C41.2999401,30.0294551 41.5588754,30.172735 41.9164233,30.268684 C41.9919926,30.2889639 42.1002482,30.307884 42.1866352,30.3268894 C42.1935812,30.3285944 42.199734,30.3320044 42.2067336,30.3336019 C42.2114,30.3346478 42.2178922,30.3348125 42.2223657,30.335837 C42.8421011,30.4695805 43.4439084,30.1296136 43.5711919,29.570212 C43.6984453,29.0109414 43.3029059,28.4432112 42.6868621,28.2941703 C42.597255,28.2737443 42.4701745,28.2390539 42.3831529,28.2225329 C42.0194794,28.1534901 41.7235022,28.1705169 41.3804659,28.1419408 C40.6498087,28.0651899 40.0446099,28.0027714 39.5068481,27.8330044 C39.2875872,27.7477358 39.1316043,27.4861904 39.055747,27.3785544 L38.6336806,27.2554276 C38.8525127,25.668342 38.7935066,24.0166035 38.4148313,22.3639345 C38.0326301,20.6958778 37.3571822,19.1702779 36.4563536,17.8261513 C36.5646205,17.7274858 36.7690804,17.5459838 36.8270574,17.4925895 C36.8440051,17.3046007 36.8294442,17.1075004 37.0235752,16.8993421 C37.4345716,16.5124505 37.9528031,16.1916374 38.5778517,15.8046326 C38.8745341,15.6296568 39.1487921,15.5168665 39.4465493,15.2964546 C39.5138834,15.2466122 39.6058287,15.1676799 39.6765644,15.1106451 C40.1778904,14.7097384 40.2933142,14.0182875 39.9333773,13.5659631 C39.5734405,13.1136386 38.8759605,13.0710323 38.3746345,13.4719389 C38.3032764,13.5285934 38.2064489,13.6024996 38.1423863,13.6577485 C37.8617947,13.8997369 37.6885054,14.1387501 37.4523411,14.3897935 C36.9369294,14.9146057 36.510909,15.3524407 36.0432197,15.6680738 C35.8405556,15.7863515 35.5437103,15.7454265 35.4089999,15.7374726 L35.0114981,16.0217836 C32.7448413,13.6390819 29.658737,12.1157199 26.3357017,11.8197972 C26.3264075,11.6801959 26.3142312,11.4278567 26.311137,11.3519152 C26.175096,11.2214169 26.0107564,11.1100057 25.9694641,10.8280666 C25.9240028,10.2647177 25.9999044,9.65861494 26.0878214,8.92743608 C26.1363505,8.58581439 26.2169785,8.30202344 26.2307434,7.93122811 C26.2338734,7.84693737 26.2288496,7.72462506 26.2285138,7.63348506 C26.2284452,6.99060434 25.7605844,6.46931813 25.1833968,6.46937687 L25.1833932,6.46937687 Z M23.8747639,14.5957475 L23.5643552,20.0916813 L23.5420236,20.1028747 C23.5212042,20.5945474 23.1175482,20.9871492 22.6219634,20.9871492 C22.4189563,20.9871492 22.2315763,20.9217951 22.0793065,20.8102943 L22.0703739,20.8147716 L17.575031,17.6201901 C18.9566328,16.2582802 20.7238102,15.2518288 22.7604191,14.7882731 C23.1324443,14.7035955 23.5043037,14.6407644 23.8747639,14.5957475 Z M26.4942558,14.5957475 C28.8720108,14.8889108 31.0709755,15.9682361 32.7560249,17.6224288 L28.2897131,20.7968623 L28.274081,20.7901498 C27.8776548,21.0804025 27.3191171,21.0083854 27.0101148,20.6200109 C26.8835345,20.4609071 26.8171186,20.273831 26.8091307,20.0849689 L26.8046644,20.0827338 L26.4942558,14.5957475 Z M15.9448272,19.6730501 L20.0493678,23.3534229 L20.0449015,23.3758096 C20.4153817,23.6986774 20.4700143,24.2589515 20.1610256,24.6473739 C20.0344539,24.8064843 19.8650285,24.9132018 19.6831302,24.9630264 L19.6786639,24.9809357 L14.4173486,26.503231 C14.1495643,24.0485624 14.7266711,21.6624293 15.9448272,19.6730501 Z M34.3929282,19.6752852 C35.0027834,20.6662142 35.4645965,21.7729824 35.7395212,22.9728455 C36.0111487,24.1583217 36.0793175,25.3416782 35.9673031,26.4853181 L30.6791899,24.9585454 L30.6747236,24.9361587 C30.2011874,24.8064205 29.9101675,24.3235427 30.0204089,23.8392106 C30.0655744,23.6408022 30.1706357,23.4729543 30.3129524,23.348942 L30.3107228,23.3377487 L34.3929318,19.6752852 L34.3929282,19.6752852 Z M24.3414935,23.6377304 L26.0230599,23.6377304 L27.0681768,24.9473521 L26.6930066,26.5815809 L25.1833932,27.3091485 L23.6693135,26.5793422 L23.2941433,24.9451134 L24.3414935,23.6377304 Z M29.7323318,28.1195469 C29.8037907,28.1159292 29.8749379,28.1223837 29.9444816,28.1352176 L29.9534143,28.1240242 L35.3956152,29.0463561 C34.5991468,31.289546 33.0750761,33.2328602 31.038728,34.5333353 L28.9261625,29.4179753 L28.9328584,29.4090206 C28.7387983,28.9569891 28.9330014,28.426903 29.3794896,28.2113324 C29.4938022,28.1561422 29.6132307,28.1255816 29.7323283,28.1195469 L29.7323318,28.1195469 Z M20.5920247,28.1419336 C21.0073374,28.147772 21.3798549,28.4367395 21.4763544,28.8605465 C21.5215313,29.0589521 21.4995435,29.2555374 21.4249918,29.4291686 L21.4406239,29.4493166 L19.35039,34.5131873 C17.3961349,33.2560507 15.8395638,31.3737465 15.0069018,29.064269 L20.4022064,28.1464145 L20.4111391,28.1576079 C20.4714886,28.1464747 20.5326942,28.1411026 20.5920247,28.1419372 L20.5920247,28.1419336 Z M25.1498959,30.3604587 C25.2945651,30.3551289 25.4413603,30.3848857 25.580895,30.4522442 C25.7638001,30.5405395 25.9050942,30.6795634 25.9940288,30.84625 L26.0141272,30.84625 L28.6738159,35.663867 C28.3286386,35.7798645 27.9737776,35.8789999 27.6108337,35.9616101 C25.5767302,36.4245956 23.5490897,36.284313 21.713069,35.657151 L24.3660582,30.8484887 L24.3705245,30.8484887 C24.529716,30.5501611 24.8316244,30.3721808 25.1498959,30.3604587 Z" id="path3059" stroke-width="0.25" fill="#FFFFFF"></path>
                    </g>
                </g>
                <g id="Group-7" transform="translate(36.000000, 31.000000)" fill="#C8C8C8">
                    <rect id="Rectangle-7" stroke="#FFFFFF" stroke-width="2" x="10" y="-1" width="6" height="27.140625" rx="2"></rect>
                    <rect id="Rectangle-7" stroke="#FFFFFF" stroke-width="2" transform="translate(13.000000, 12.500000) rotate(90.000000) translate(-13.000000, -12.500000) " x="10" y="-1" width="6" height="27" rx="2"></rect>
                    <rect id="Rectangle-7" x="11" y="5" width="4" height="13" rx="2"></rect>
                </g>
            </g>
        </g>
    </g>
</svg>
