<?xml version="1.0" encoding="UTF-8"?><svg id="Ebene_1" xmlns="http://www.w3.org/2000/svg" viewBox="0 0 500 287.38"><defs><style>.cls-1{fill:#fff;}</style></defs><rect width="500" height="287.38"/><g><polygon class="cls-1" points="412.44 163.56 402.78 163.56 380.04 218.44 388.58 218.44 407.34 171.46 425.91 218.44 434.85 218.44 412.44 163.56"/><polygon class="cls-1" points="77.71 98.25 104.29 124.36 115.58 124.36 86.34 95.98 114.64 69.48 104.29 69.48 77.71 95.04 77.71 69.48 69.48 69.48 69.48 124.36 77.71 124.36 77.71 98.25"/><polygon class="cls-1" points="218.28 117.07 186.68 117.07 186.68 69.48 178.45 69.48 178.45 124.36 218.28 124.36 218.28 117.07"/><polygon class="cls-1" points="327.6 117.07 296.01 117.07 296.01 69.48 287.77 69.48 287.77 124.36 327.6 124.36 327.6 117.07"/><path class="cls-1" d="M392.63,98.25l26.58,26.11h11.29l-29.24-28.38,28.3-26.5h-45.16v54.88h8.23v-26.11Zm0-20.55h18.03l-18.03,17.33v-17.33Z"/><path class="cls-1" d="M81.32,176.22c1.8-1.85,3.96-3.3,6.47-4.35,2.51-1.04,5.2-1.57,8.07-1.57,3.14,0,6.17,.65,9.09,1.96,2.93,1.31,5.43,3.16,7.53,5.57l5.49-5.64c-2.56-2.93-5.81-5.24-9.76-6.94-3.95-1.7-8.06-2.55-12.35-2.55-4.03,0-7.8,.73-11.33,2.2-3.53,1.46-6.57,3.46-9.13,6-2.56,2.54-4.59,5.53-6.08,8.98-1.49,3.45-2.23,7.16-2.23,11.13s.74,7.62,2.23,11.09c1.49,3.48,3.51,6.48,6.08,9.02,2.56,2.54,5.61,4.53,9.13,6,3.53,1.46,7.3,2.2,11.33,2.2s8.22-.85,12.11-2.55c3.89-1.7,7.17-4.01,9.84-6.94l-5.41-5.49c-1.99,2.35-4.42,4.17-7.29,5.45-2.87,1.28-5.88,1.92-9.02,1.92-2.93,0-5.66-.54-8.19-1.61-2.54-1.07-4.72-2.52-6.55-4.35-1.83-1.83-3.27-4.01-4.31-6.55-1.05-2.53-1.57-5.26-1.57-8.19s.52-5.66,1.57-8.19c1.04-2.53,2.47-4.73,4.27-6.59Z"/><path class="cls-1" d="M218.63,170.89c-2.56-2.53-5.59-4.53-9.09-6-3.5-1.46-7.24-2.2-11.21-2.2s-7.71,.73-11.21,2.2c-3.5,1.46-6.52,3.46-9.05,6-2.54,2.54-4.55,5.54-6.04,9.02-1.49,3.48-2.23,7.17-2.23,11.09s.74,7.62,2.23,11.09c1.49,3.48,3.5,6.48,6.04,9.02,2.53,2.54,5.55,4.53,9.05,6,3.5,1.46,7.24,2.2,11.21,2.2s7.71-.73,11.21-2.2c3.5-1.46,6.53-3.46,9.09-6,2.56-2.53,4.59-5.54,6.08-9.02,1.49-3.48,2.23-7.17,2.23-11.09s-.74-7.62-2.23-11.09c-1.49-3.48-3.52-6.48-6.08-9.02Zm-1.65,28.3c-1.05,2.54-2.47,4.72-4.27,6.55-1.8,1.83-3.95,3.28-6.43,4.35-2.48,1.07-5.13,1.61-7.96,1.61s-5.46-.54-7.92-1.61c-2.46-1.07-4.59-2.52-6.39-4.35-1.8-1.83-3.23-4.01-4.27-6.55-1.05-2.53-1.57-5.26-1.57-8.19s.52-5.66,1.57-8.19c1.04-2.53,2.47-4.73,4.27-6.59,1.8-1.85,3.93-3.3,6.39-4.35,2.46-1.04,5.1-1.57,7.92-1.57s5.47,.52,7.96,1.57c2.48,1.05,4.63,2.5,6.43,4.35,1.8,1.86,3.23,4.05,4.27,6.59,1.04,2.54,1.57,5.27,1.57,8.19s-.52,5.66-1.57,8.19Z"/><path class="cls-1" d="M323.56,171.36c-2.59-2.43-5.64-4.34-9.17-5.72-3.53-1.38-7.36-2.08-11.48-2.08h-19.36v54.88h19.36c4.13,0,7.97-.69,11.52-2.08,3.55-1.38,6.61-3.29,9.17-5.72,2.56-2.43,4.57-5.32,6.04-8.66,1.46-3.34,2.2-6.98,2.2-10.9s-.73-7.58-2.2-10.98c-1.46-3.4-3.49-6.31-6.08-8.74Zm-1.76,27.6c-1.05,2.43-2.47,4.55-4.27,6.35-1.8,1.8-3.96,3.21-6.47,4.23-2.51,1.02-5.17,1.53-8,1.53h-11.29v-40.14h11.29c2.82,0,5.49,.51,8,1.53,2.51,1.02,4.66,2.43,6.47,4.23,1.8,1.8,3.23,3.95,4.27,6.43,1.04,2.48,1.57,5.13,1.57,7.96s-.52,5.45-1.57,7.88Z"/></g></svg>