<?xml version="1.0" encoding="UTF-8"?>
<svg width="42px" height="41px" viewBox="0 0 42 41" version="1.1" xmlns="http://www.w3.org/2000/svg" xmlns:xlink="http://www.w3.org/1999/xlink">
    <!-- Generator: Sketch 50.2 (55047) - http://www.bohemiancoding.com/sketch -->
    <title>Group 18</title>
    <desc>Created with Sketch.</desc>
    <defs></defs>
    <g id="Welcome" stroke="none" stroke-width="1" fill="none" fill-rule="evenodd">
        <g id="Home" transform="translate(-532.000000, -307.000000)" fill-rule="nonzero" stroke="#FFFFFF">
            <g id="Group-18" transform="translate(533.000000, 308.000000)">
                <path d="M19.8573847,0.0604442982 C19.5048523,0.0782907462 19.1594454,0.166128672 18.8414273,0.318805044 L4.9779521,6.97560329 C4.25109003,7.3244442 3.72314606,7.9841874 3.54355494,8.76809232 L0.123342173,23.7209432 C-0.0362187375,24.4169784 0.093612258,25.1477479 0.483271251,25.7468478 C0.530037381,25.8193397 0.580333913,25.8895076 0.633980471,25.9571 L10.2297252,37.9468204 C10.7328718,38.5752853 11.4957379,38.9412218 12.3024202,38.9410638 L27.6907181,38.9375002 C28.4970986,38.9380908 29.259911,38.5728359 29.7634131,37.9450386 L39.3556117,25.9535364 C39.8590275,25.3247565 40.0476415,24.5016475 39.868023,23.7173796 L36.4424911,8.76452873 C36.2629,7.98062381 35.734956,7.32088061 35.0080939,6.97203969 L21.1428457,0.318805044 C20.7428269,0.126750278 20.3008179,0.0379122884 19.8573847,0.0604442982 Z" id="path3055" fill="#326CE5"></path>
                <path d="M19.9947555,5.14909588 C19.5364883,5.14914263 19.1649138,5.56395039 19.1649683,6.07563096 C19.1649688,6.08348399 19.1665683,6.09098807 19.1667385,6.09879434 C19.1660633,6.16831925 19.1627215,6.25207803 19.1649683,6.31261013 C19.1758971,6.60773294 19.239913,6.83360737 19.2784434,7.10551035 C19.3482466,7.68746904 19.4067368,8.16987737 19.370642,8.61825706 C19.3355391,8.78733689 19.2116134,8.94196904 19.1011385,9.04945224 L19.0816349,9.40224829 C18.5836593,9.44370974 18.0823527,9.51963259 17.5816349,9.63388206 C15.4270471,10.1254976 13.571985,11.2408115 12.1596491,12.7466836 C12.0680054,12.6838543 11.9076758,12.5682677 11.8600009,12.5328678 C11.7118494,12.5529733 11.5621166,12.5989107 11.3670931,12.4847593 C10.9957507,12.2335611 10.6575402,11.8868203 10.2482988,11.4691343 C10.0607822,11.2693339 9.92498983,11.0790767 9.70219948,10.8864862 C9.65160544,10.8427498 9.57439352,10.7835952 9.51780231,10.738597 C9.34362473,10.5990425 9.13818813,10.5262625 8.93978813,10.5194358 C8.68470217,10.5106585 8.43913905,10.6108834 8.27844061,10.8134325 C7.99275494,11.17352 8.08422104,11.7238915 8.48234132,12.0428733 C8.48638104,12.0461062 8.49068288,12.0486195 8.49475267,12.0517823 C8.54946019,12.0963483 8.61645253,12.153452 8.66673849,12.1907625 C8.90315664,12.3661799 9.11911863,12.4559768 9.35468175,12.5952307 C9.85096544,12.9032287 10.2623907,13.1586131 10.5887243,13.4665301 C10.7161581,13.6030398 10.738431,13.8435825 10.755391,13.9476156 L11.0213484,14.1863766 C9.59760827,16.3395689 8.93868969,18.9991967 9.32808884,21.7091288 L8.98057111,21.8106913 C8.88897962,21.9295506 8.75955494,22.1165756 8.62418529,22.1723963 C8.19722756,22.3075399 7.71671068,22.3571668 7.13659664,22.4182845 C6.86423863,22.441043 6.62923891,22.4274614 6.34049735,22.4824292 C6.27694671,22.4945272 6.18839976,22.51771 6.11886614,22.5341014 C6.11644912,22.5346145 6.11419097,22.5353329 6.11177395,22.5358803 C6.10798388,22.5367641 6.10300458,22.5386114 6.0993626,22.5394439 C5.61027664,22.6581995 5.29608657,23.1099614 5.39723494,23.5550689 C5.49840714,24.0002807 5.9761365,24.2710251 6.46815692,24.1644439 C6.4717087,24.1636286 6.47686614,24.1634917 6.48056827,24.162665 C6.48612288,24.1613878 6.4910131,24.1586794 6.49652572,24.1573224 C6.56511295,24.1421922 6.65106586,24.1253584 6.71106473,24.1092139 C6.99494217,24.0328314 7.2005365,23.9206021 7.45574558,23.8223443 C8.00479182,23.6244496 8.45953168,23.45913 8.90255409,23.3947128 C9.08758558,23.3801493 9.28253196,23.5094412 9.37950444,23.5639836 L9.74120657,23.5016207 C10.5735572,26.0949393 12.3178965,28.1910297 14.5266676,29.5062807 L14.3759583,29.8697676 C14.43028,30.01091 14.4901944,30.2018777 14.4497297,30.3412639 C14.2886698,30.7609814 14.0127952,31.2039946 13.6986534,31.6978926 C13.5465484,31.9260722 13.3908786,32.1031511 13.2536179,32.3642851 C13.2207725,32.4267701 13.178941,32.5227551 13.1472349,32.5887917 C12.9339674,33.0473473 13.0904043,33.5754917 13.5000718,33.7736875 C13.912313,33.9731281 14.4240134,33.7627778 14.6454619,33.3032928 C14.6458023,33.3026428 14.64692,33.3021639 14.6472321,33.3015139 C14.6474591,33.3010007 14.6470052,33.300231 14.6472321,33.2997349 C14.6787742,33.2345895 14.7234608,33.1489594 14.750069,33.0877009 C14.8676366,32.8170375 14.9067561,32.5850879 14.9894307,32.3233095 C15.2089836,31.769091 15.3296105,31.1875753 15.6318466,30.8252243 C15.7146086,30.7260006 15.8495379,30.6878405 15.9894307,30.6502009 L16.1773739,30.3080957 C18.1029478,31.0508518 20.2583192,31.2501657 22.4114165,30.7588906 C22.9025921,30.6468186 23.3767748,30.5017729 23.8351754,30.3276954 C23.8879969,30.4218502 23.9861615,30.602845 24.0124803,30.6484191 C24.1546415,30.6948987 24.3098103,30.7189008 24.4362392,30.9067799 C24.6623606,31.2950112 24.8169995,31.7542978 25.0053881,32.3090551 C25.0880764,32.5708289 25.128941,32.8027888 25.2465229,33.0734465 C25.2733223,33.1351367 25.3177853,33.2219693 25.3493598,33.2872623 C25.5703425,33.74824 26.0836644,33.9593093 26.4965229,33.7594389 C26.9061399,33.5611375 27.0627493,33.0330411 26.8493598,32.574543 C26.8176497,32.5085087 26.774052,32.4125197 26.7412037,32.3500364 C26.6039294,32.0889098 26.4482846,31.9135968 26.2961683,31.6854257 C25.9820003,31.1915443 25.7214347,30.7812586 25.5603527,30.3615496 C25.4929989,30.1450785 25.5717161,30.0104504 25.6241825,29.8697733 C25.5927623,29.8335803 25.5255266,29.6291541 25.4858846,29.5330134 C27.7813399,28.1709692 29.4744554,25.9967118 30.2695725,23.4855902 C30.3769427,23.5025483 30.5635606,23.5357291 30.6241825,23.5479531 C30.7489791,23.4652378 30.8637252,23.3573138 31.0887215,23.3751187 C31.5317467,23.4395126 31.9864735,23.604884 32.53553,23.8027503 C32.7907442,23.9009949 32.99633,24.015034 33.2802108,24.0914016 C33.3402103,24.1075427 33.4261615,24.1226016 33.4947498,24.1377283 C33.5002647,24.1390854 33.5051498,24.1417994 33.5107073,24.1430709 C33.5144122,24.1439033 33.5195669,24.1440345 33.5231186,24.1448498 C34.0151674,24.2512987 34.4929819,23.9807129 34.5940406,23.5354748 C34.6950755,23.0903411 34.3810307,22.6384743 33.891913,22.5198498 C33.820768,22.5035924 33.7198704,22.4759817 33.6507782,22.4628323 C33.3620338,22.4078799 33.1270381,22.4214318 32.8546789,22.3986875 C32.274562,22.3376001 31.7940548,22.2879201 31.3670903,22.1527994 C31.1930046,22.0849325 31.0691595,21.8767638 31.0089314,21.7910943 L30.673825,21.6930954 C30.8475703,20.4299048 30.8007215,19.1152559 30.5000661,17.7998663 C30.1966114,16.4722293 29.6603288,15.2579763 28.9451016,14.1881612 C29.0310619,14.1096315 29.1933961,13.9651707 29.2394278,13.9226733 C29.2528837,13.7730496 29.2413229,13.6161738 29.3954562,13.4504968 C29.7217734,13.1425627 30.1332315,12.8872216 30.6294988,12.5791974 C30.8650545,12.4399309 31.082806,12.3501591 31.3192151,12.1747292 C31.3726761,12.1350587 31.4456775,12.072235 31.5018392,12.02684 C31.8998749,11.707751 31.9915175,11.1574125 31.7057399,10.7973992 C31.4199623,10.4373858 30.866187,10.4034746 30.4681513,10.7225636 C30.4114954,10.767656 30.3346176,10.8264793 30.2837541,10.8704529 C30.0609739,11.0630559 29.9233881,11.2532909 29.7358817,11.4531009 C29.3266625,11.8708086 28.9884168,12.2192896 28.6170874,12.4705077 C28.4561791,12.5646471 28.2204939,12.5320741 28.1135385,12.5257435 L27.7979356,12.7520318 C25.9982874,10.8555958 23.5480259,9.64312404 20.9096491,9.40759368 C20.9022698,9.29648246 20.8926023,9.09564101 20.8901456,9.03519785 C20.7821337,8.93133184 20.6516537,8.84265759 20.618869,8.61825706 C20.5827742,8.16987737 20.6430375,7.68746904 20.7128406,7.10551035 C20.7513711,6.83360737 20.815387,6.60773294 20.8263158,6.31261013 C20.8288009,6.24552158 20.8248122,6.14817096 20.8245456,6.07563096 C20.8244911,5.56395039 20.4530256,5.14904912 19.9947583,5.14909588 L19.9947555,5.14909588 Z M18.9557484,11.6170235 L18.7092945,15.9913382 L18.691564,16.0002472 C18.6750341,16.3915786 18.354545,16.7040575 17.9610676,16.7040575 C17.7998869,16.7040575 17.6511135,16.652041 17.5302165,16.5632954 L17.5231243,16.566859 L13.9539754,14.0242329 C15.05092,12.9402639 16.4539986,12.1392107 18.0709966,11.7702582 C18.366372,11.7028617 18.6616156,11.6528533 18.9557484,11.6170235 Z M21.0355356,11.6170235 C22.9233921,11.8503575 24.6692951,12.7094124 26.0071669,14.0260147 L22.4610676,16.5526046 L22.4486562,16.5472621 C22.1339073,16.7782795 21.6904474,16.7209598 21.4451101,16.4118454 C21.3446097,16.2852118 21.2918778,16.1363144 21.2855356,15.9859957 L21.2819895,15.9842167 L21.0355356,11.6170235 Z M12.6596491,15.6581419 L15.9185144,18.5874182 L15.9149683,18.6052362 C16.2091169,18.8622126 16.2524934,19.3081451 16.0071669,19.6172976 C15.9066732,19.7439364 15.7721552,19.8288749 15.6277342,19.8685312 L15.6241881,19.8827856 L11.4468832,21.0944084 C11.2342715,19.1406925 11.6924747,17.2415254 12.6596491,15.6581419 Z M27.3068122,15.6599209 C27.7910165,16.4486195 28.1576803,17.3295166 28.3759612,18.2845097 C28.5916242,19.228052 28.6457478,20.1699071 28.5568122,21.0801511 L24.3582307,19.8649647 L24.3546846,19.8471468 C23.978713,19.7438857 23.7476531,19.3595544 23.835181,18.9740656 C23.8710409,18.8161487 23.9544559,18.6825554 24.0674505,18.5838518 L24.0656803,18.5749428 L27.3068151,15.6599209 L27.3068122,15.6599209 Z M19.3263158,18.8137038 L20.6614222,18.8137038 L21.4912094,19.8560557 L21.1933371,21.1567685 L19.9947555,21.7358529 L18.7926278,21.1549867 L18.4947555,19.8542739 L19.3263158,18.8137038 Z M23.6064576,22.3808639 C23.6631935,22.3779845 23.719682,22.3831218 23.7748974,22.3933364 L23.7819895,22.3844275 L28.1029115,23.1185283 C27.4705427,24.9039244 26.2604826,26.4506439 24.6436917,27.4857158 L22.9663867,23.4143068 L22.971703,23.4071796 C22.8176259,23.0473995 22.9718165,22.6254942 23.326313,22.4539176 C23.4170732,22.4099907 23.5118954,22.385667 23.6064548,22.3808639 L23.6064576,22.3808639 Z M16.3493654,22.3986818 C16.6791095,22.4033288 16.9748758,22.6333233 17.0514931,22.9706391 C17.087362,23.1285537 17.0699044,23.2850196 17.010713,23.4232158 L17.0231243,23.439252 L15.3635498,27.4696796 C13.8119379,26.4691016 12.5760735,24.9709411 11.9149683,23.1327856 L16.1986562,22.4022483 L16.2057484,22.4111573 C16.2536639,22.4022962 16.3022591,22.3980204 16.3493654,22.3986847 L16.3493654,22.3986818 Z M19.9681598,24.1644468 C20.0830222,24.1602046 20.1995725,24.1838886 20.3103583,24.2375005 C20.4555788,24.3077763 20.5677615,24.418428 20.6383725,24.551097 L20.65433,24.551097 L22.7660321,28.3855268 C22.4919731,28.4778513 22.2102256,28.556755 21.9220605,28.622506 C20.3070517,28.9910046 18.6971742,28.8793512 17.2394364,28.3801814 L19.3458193,24.5528788 L19.3493654,24.5528788 C19.4757581,24.3154343 19.715463,24.1737765 19.9681598,24.1644468 Z" id="path3059" stroke-width="0.25" fill="#FFFFFF"></path>
            </g>
        </g>
    </g>
</svg>