<?xml version="1.0" encoding="UTF-8" standalone="no"?><!DOCTYPE svg PUBLIC "-//W3C//DTD SVG 1.1//EN" "http://www.w3.org/Graphics/SVG/1.1/DTD/svg11.dtd"><!-- Generated by graphviz version 2.40.1 (20161225.0304)
 --><!-- Title: bridge Pages: 1 --><svg xmlns="http://www.w3.org/2000/svg" xmlns:xlink="http://www.w3.org/1999/xlink" width="292pt" height="287pt" viewBox="0.00 0.00 292.00 286.51">
<g id="graph0" class="graph" transform="scale(1 1) rotate(0) translate(4 282.5052)">
<title>bridge</title>
<polygon fill="#ffffff" stroke="transparent" points="-4,4 -4,-282.5052 288,-282.5052 288,4 -4,4"/>
<g id="clust1" class="cluster">
<title>cluster_kubevirtci</title>
<polygon fill="#3cb371" stroke="#3cb371" points="8,-8 8,-270.5052 276,-270.5052 276,-8 8,-8"/>
<text text-anchor="middle" x="142" y="-253.9052" font-family="Times,serif" font-size="14.00" fill="#000000">kubevirtci cluster</text>
</g>
<g id="clust2" class="cluster">
<title>cluster_node01</title>
<polygon fill="#8b864e" stroke="#8b864e" points="146,-72 146,-237.7052 268,-237.7052 268,-72 146,-72"/>
<text text-anchor="middle" x="207" y="-221.1052" font-family="Times,serif" font-size="14.00" fill="#000000">node01</text>
</g>
<g id="clust3" class="cluster">
<title>cluster_vma</title>
<polygon fill="#b4cdcd" stroke="#b4cdcd" points="204,-80 204,-160.9052 260,-160.9052 260,-80 204,-80"/>
<text text-anchor="middle" x="232" y="-144.3052" font-family="Times,serif" font-size="14.00" fill="#000000">vma</text>
</g>
<g id="clust4" class="cluster">
<title>cluster_node02</title>
<polygon fill="#8b864e" stroke="#8b864e" points="16,-72 16,-237.7052 138,-237.7052 138,-72 16,-72"/>
<text text-anchor="middle" x="77" y="-221.1052" font-family="Times,serif" font-size="14.00" fill="#000000">node02</text>
</g>
<g id="clust5" class="cluster">
<title>cluster_vmb</title>
<polygon fill="#b4cdcd" stroke="#b4cdcd" points="74,-80 74,-160.9052 130,-160.9052 130,-80 74,-80"/>
<text text-anchor="middle" x="102" y="-144.3052" font-family="Times,serif" font-size="14.00" fill="#000000">vmb</text>
</g>
<!-- nd_br1_kubevirtci -->
<g id="node1" class="node">
<title>nd_br1_kubevirtci</title>
<polygon fill="#ffd700" stroke="#ffd700" points="127,-52 91,-52 91,-16 127,-16 127,-52"/>
<text text-anchor="middle" x="109" y="-29.8" font-family="Times,serif" font-size="14.00" fill="#000000">br1</text>
</g>
<!-- nd_br0_node01 -->
<g id="node2" class="node">
<title>nd_br0_node01</title>
<polygon fill="#ffd700" stroke="#ffd700" points="221,-204.9052 185,-204.9052 185,-168.9052 221,-168.9052 221,-204.9052"/>
<text text-anchor="middle" x="203" y="-182.7052" font-family="Times,serif" font-size="14.00" fill="#000000">br0</text>
</g>
<!-- nd_eth1_node01 -->
<g id="node3" class="node">
<title>nd_eth1_node01</title>
<polygon fill="#ffd700" stroke="#ffd700" points="194.1053,-128.1579 153.8947,-128.1579 153.8947,-87.9473 194.1053,-87.9473 194.1053,-128.1579"/>
<text text-anchor="middle" x="174" y="-103.8526" font-family="Times,serif" font-size="14.00" fill="#000000">eth1</text>
</g>
<!-- nd_br0_node01&#45;&#45;nd_eth1_node01 -->
<g id="edge3" class="edge">
<title>nd_br0_node01--nd_eth1_node01</title>
<path fill="none" stroke="#000000" d="M196.2739,-168.6166C191.8232,-156.5147 185.985,-140.6405 181.4024,-128.18"/>
</g>
<!-- nd_eth1_vma -->
<g id="node4" class="node">
<title>nd_eth1_vma</title>
<polygon fill="#ffd700" stroke="#ffd700" points="252.1053,-128.1579 211.8947,-128.1579 211.8947,-87.9473 252.1053,-87.9473 252.1053,-128.1579"/>
<text text-anchor="middle" x="232" y="-103.8526" font-family="Times,serif" font-size="14.00" fill="#000000">eth1</text>
</g>
<!-- nd_br0_node01&#45;&#45;nd_eth1_vma -->
<g id="edge4" class="edge">
<title>nd_br0_node01--nd_eth1_vma</title>
<path fill="none" stroke="#000000" d="M209.7261,-168.6166C214.1768,-156.5147 220.015,-140.6405 224.5976,-128.18"/>
</g>
<!-- nd_eth1_node01&#45;&#45;nd_br1_kubevirtci -->
<g id="edge1" class="edge">
<title>nd_eth1_node01--nd_br1_kubevirtci</title>
<path fill="none" stroke="#000000" d="M156.2385,-87.8174C146.4655,-76.6833 134.4366,-62.9792 124.9632,-52.1864"/>
</g>
<!-- nd_br0_node02 -->
<g id="node5" class="node">
<title>nd_br0_node02</title>
<polygon fill="#ffd700" stroke="#ffd700" points="91,-204.9052 55,-204.9052 55,-168.9052 91,-168.9052 91,-204.9052"/>
<text text-anchor="middle" x="73" y="-182.7052" font-family="Times,serif" font-size="14.00" fill="#000000">br0</text>
</g>
<!-- nd_eth1_node02 -->
<g id="node6" class="node">
<title>nd_eth1_node02</title>
<polygon fill="#ffd700" stroke="#ffd700" points="64.1053,-128.1579 23.8947,-128.1579 23.8947,-87.9473 64.1053,-87.9473 64.1053,-128.1579"/>
<text text-anchor="middle" x="44" y="-103.8526" font-family="Times,serif" font-size="14.00" fill="#000000">eth1</text>
</g>
<!-- nd_br0_node02&#45;&#45;nd_eth1_node02 -->
<g id="edge5" class="edge">
<title>nd_br0_node02--nd_eth1_node02</title>
<path fill="none" stroke="#000000" d="M66.2739,-168.6166C61.8232,-156.5147 55.985,-140.6405 51.4024,-128.18"/>
</g>
<!-- nd_eth1_vmb -->
<g id="node7" class="node">
<title>nd_eth1_vmb</title>
<polygon fill="#ffd700" stroke="#ffd700" points="122.1053,-128.1579 81.8947,-128.1579 81.8947,-87.9473 122.1053,-87.9473 122.1053,-128.1579"/>
<text text-anchor="middle" x="102" y="-103.8526" font-family="Times,serif" font-size="14.00" fill="#000000">eth1</text>
</g>
<!-- nd_br0_node02&#45;&#45;nd_eth1_vmb -->
<g id="edge6" class="edge">
<title>nd_br0_node02--nd_eth1_vmb</title>
<path fill="none" stroke="#000000" d="M79.7261,-168.6166C84.1768,-156.5147 90.015,-140.6405 94.5976,-128.18"/>
</g>
<!-- nd_eth1_node02&#45;&#45;nd_br1_kubevirtci -->
<g id="edge2" class="edge">
<title>nd_eth1_node02--nd_br1_kubevirtci</title>
<path fill="none" stroke="#000000" d="M61.7615,-87.8174C71.5345,-76.6833 83.5634,-62.9792 93.0368,-52.1864"/>
</g>
</g>
</svg>
