<?xml version="1.0" encoding="UTF-8"?>
<svg width="41px" height="40px" viewBox="0 0 41 40" version="1.1" xmlns="http://www.w3.org/2000/svg" xmlns:xlink="http://www.w3.org/1999/xlink">
    <!-- Generator: Sketch 50.2 (55047) - http://www.bohemiancoding.com/sketch -->
    <title>Group 14</title>
    <desc>Created with Sketch.</desc>
    <defs>
        <polygon id="path-1" points="40.1917968 39.2681951 40.1917968 0.0340502107 0 0.0340502107 0 39.2681951"></polygon>
    </defs>
    <g id="Welcome" stroke="none" stroke-width="1" fill="none" fill-rule="evenodd">
        <g id="Home" transform="translate(-135.000000, -308.000000)">
            <g id="Group-14" transform="translate(135.000000, 308.000000)">
                <g id="Group-2">
                    <g id="border" transform="translate(0.000000, 0.031873)">
                        <g id="Fill-1-Clipped">
                            <mask id="mask-2" fill="white">
                                <use xlink:href="#path-1"></use>
                            </mask>
                            <g id="path-1"></g>
                            <path d="M20.1349133,0.0339548751 C19.5892749,0.0339548751 19.0433987,0.164325735 18.5236752,0.398611941 L5.37390833,6.70336578 C4.33422346,7.19815536 3.60670557,8.11003636 3.34684379,9.2302247 L0.0982149143,23.3765355 C-0.161646865,24.4967238 0.0982149143,25.6431294 0.825970551,26.5550104 L9.92160832,37.8875033 C10.6234491,38.7734055 11.6888111,39.2681951 12.8062405,39.2681951 L27.3856038,39.2681951 C28.5030333,39.2681951 29.5683952,38.7734055 30.270236,37.8875033 L39.3658738,26.5550104 C40.0936295,25.6691083 40.3534912,24.4967238 40.0936295,23.3765355 L36.8450006,9.2302247 C36.5851388,8.11003636 35.8576209,7.19815536 34.817936,6.70336578 L21.7202366,0.398611941 C21.2264279,0.164325735 20.6805517,0.0339548751 20.1349133,0.0339548751 M20.1349133,1.25829693 C20.4986723,1.25829693 20.8626689,1.33647178 21.2005131,1.49282147 L34.35028,7.7713581 C35.0259681,8.11003636 35.5456916,8.73543512 35.7016563,9.46474925 L38.9500474,23.61106 C39.1319269,24.3665913 38.9500474,25.1481015 38.4562387,25.7472831 L29.3606009,37.0800143 C28.892707,37.679196 28.1651891,38.0178741 27.4115187,38.0178741 L12.8323932,38.0178741 C12.0787226,38.0178741 11.350967,37.679196 10.8833109,37.0800143 L1.78743536,25.7472831 C1.31977925,25.1481015 1.13789978,24.3665913 1.29362665,23.61106 L4.54225553,9.46474925 C4.724135,8.70921797 5.21794371,8.08405754 5.89363189,7.7713581 L19.0433987,1.46684264 C19.3812428,1.33647178 19.7711544,1.25829693 20.1349133,1.25829693" id="Fill-1" fill="#326DE6" fill-rule="nonzero" mask="url(#mask-2)"></path>
                        </g>
                    </g>
                    <path d="M12.5265028,34.7416403 C12.9927324,35.3284283 13.6919579,35.6523296 14.4218533,35.6523296 L25.8631419,35.6320709 C26.593275,35.6320709 27.2851303,35.2879109 27.7513599,34.7213816 L34.7260215,25.9183693 C34.9273966,25.6435657 34.905048,25.1046835 34.905048,24.6506498 L34.905048,12.3578932 L19.9196061,21.0074158 L19.9196061,21.0071775 L4.94842924,12.3659967 L4.94842924,24.6506498 C4.94842924,25.112072 5.11105089,25.5620541 5.41014157,25.938628 L12.5265028,34.7416403 Z" id="kube-bottom" fill="#1FBFCF" fill-rule="nonzero"></path>
                    <polygon id="kube-top" fill="#C9E9EC" fill-rule="nonzero" points="19.9196061 21.0073682 34.905048 12.3580839 19.9055787 3.71380477 4.94842924 12.3654724"></polygon>
                </g>
                <path d="M23.4945957,27.6896493 C23.0649797,27.963738 22.4789236,27.8855631 22.12729,27.4546481 C22.0100788,27.3371475 21.9710876,27.1805594 21.9320965,27.0239714 L21.5804629,20.6405661 C24.2758453,20.9539805 26.737043,22.1678357 28.6121847,24.0476071 L23.4945957,27.6896493 Z M18.1818131,26.8671451 C18.1425842,27.4155607 17.7129683,27.8855631 17.1269122,27.8855631 C16.9707098,27.8855631 16.7755163,27.8462374 16.6583051,27.7680625 L11.462496,24.0476071 C13.0642241,22.4419243 15.056577,21.3455697 17.2833523,20.8364799 C17.7129683,20.7580667 18.1035931,20.6796535 18.5334468,20.6014787 L18.1818131,26.8671451 Z M32.792084,24.2435209 L33.1827088,23.8910191 L33.1827088,23.8126059 C33.1827088,23.6169304 33.2217,23.4210166 33.3781401,23.2253411 C33.8467472,22.7944262 34.4328033,22.4419243 35.1358328,22.0112477 C35.2530441,21.9328344 35.3702553,21.8937471 35.4874665,21.8153338 C35.7218889,21.6980716 35.9173202,21.5805709 36.1517426,21.4237446 C36.1907338,21.3846572 36.2687161,21.3455697 36.3469361,21.2671566 C36.3859273,21.2280691 36.4251562,21.2280691 36.4251562,21.1887434 C36.9719833,20.7189793 37.0891946,19.9358007 36.6985697,19.4267109 C36.5031385,19.1523839 36.1517426,18.9957959 35.800109,18.9957959 C35.4874665,18.9957959 35.2140529,19.1132965 34.9406393,19.3092103 L34.8624192,19.3873851 C34.7844369,19.4267109 34.745208,19.5048857 34.6672257,19.5439732 C34.4717944,19.739887 34.3155921,19.896475 34.1593897,20.0923888 C34.0811697,20.1705636 34.0031873,20.2880642 33.8859761,20.3664775 C33.3389112,20.9539805 32.8310752,21.4237446 32.3232392,21.7762464 C32.206028,21.8546596 32.0888168,21.8937471 31.9716055,21.8937471 C31.8936232,21.8937471 31.8154032,21.8937471 31.7371831,21.8546596 L31.6592008,21.8546596 L31.1903559,22.1678357 C30.6825199,21.6196584 30.1356927,21.1496559 29.5886278,20.6796535 C27.244879,18.8392079 24.3930565,17.7035275 21.4242605,17.4294389 L21.3850315,16.920349 L21.3070492,16.8419358 C21.189838,16.7244352 21.0333979,16.6069346 20.9944068,16.3328459 C20.9554156,15.7062554 21.0333979,15.0012518 21.111618,14.2180733 L21.111618,14.1789859 C21.111618,14.0614853 21.1506091,13.9048972 21.189838,13.7873966 C21.2288292,13.5523954 21.2678203,13.3173942 21.3070492,13.0433055 L21.3070492,12.8083043 L21.3070492,12.6908037 C21.3070492,11.9860384 20.7599843,11.3985353 20.0959459,11.3985353 C19.7835412,11.3985353 19.4708987,11.5551234 19.2364763,11.7901246 C19.0020539,12.0251258 18.8848427,12.3383019 18.8848427,12.6908037 L18.8848427,12.7692169 L18.8848427,13.0042181 C18.8848427,13.2783067 18.9240716,13.513308 19.0020539,13.7480709 C19.0412828,13.8655715 19.0412828,13.9830721 19.0802739,14.1398985 L19.0802739,14.1789859 C19.158494,14.9621644 19.2754674,15.6671681 19.1974851,16.2937585 C19.158494,16.5678472 19.0020539,16.6853478 18.8848427,16.8028484 C18.8458515,16.8419358 18.8458515,16.8419358 18.8068604,16.8810232 L18.7676314,17.3901131 C18.0646019,17.4685263 17.3613346,17.5469395 16.6583051,17.7035275 C13.6502802,18.3692054 10.9938888,19.896475 8.92331591,22.0896608 L8.53269115,21.8153338 L8.45447105,21.8153338 C8.37648876,21.8153338 8.29826872,21.8546596 8.22028637,21.8546596 C8.10307515,21.8546596 7.98586394,21.8153338 7.86865272,21.737159 C7.36081675,21.3846572 6.85298072,20.8755673 6.30591582,20.2880642 C6.22793347,20.2098894 6.14971343,20.0923888 6.03250221,20.0139756 C5.87629982,19.8183001 5.72009747,19.6614738 5.5246662,19.4657983 C5.48567504,19.4267109 5.40745498,19.3873851 5.32947267,19.3092103 C5.29024377,19.2698845 5.25125261,19.2698845 5.25125261,19.2307971 C5.01683018,19.0348833 4.70442545,18.9173827 4.39178296,18.9173827 C4.04014931,18.9173827 3.68875342,19.0742091 3.49332215,19.3482977 C3.10269735,19.8573876 3.21990856,20.6405661 3.76673573,21.1105685 C3.80596464,21.1105685 3.80596464,21.1496559 3.84495579,21.1496559 C3.9229381,21.1887434 3.962167,21.2671566 4.04014931,21.306244 C4.27457174,21.4630703 4.47000302,21.5805709 4.70442545,21.6980716 C4.82163666,21.737159 4.93884788,21.8153338 5.05582134,21.8937471 C5.75908861,22.324662 6.34514468,22.6769255 6.81375179,23.1078405 C7.00918311,23.303516 7.00918311,23.4994298 7.00918311,23.6951053 L7.00918311,23.7735185 L7.39980787,24.1260203 C7.32158783,24.2435209 7.24360553,24.3216957 7.20461436,24.4391964 C6.74646831,25.1649354 6.35750773,25.9216584 6.03297771,26.7000702 L8.25999079,29.4547802 C8.56122126,28.3886946 9.00224925,27.3588362 9.58735427,26.3973809 L14.2360985,30.5485131 C14.6659522,30.9007766 14.7049434,31.5666928 14.3533097,31.9973694 C14.2360985,32.1539575 14.0798961,32.2714581 13.8847026,32.3107839 L11.2002567,33.0920556 L12.5340395,34.7415927 C13.0002691,35.328619 13.6992569,35.6522819 14.42939,35.6522819 L25.8706786,35.6320232 C26.600574,35.6320232 27.2924292,35.2881015 27.7588966,34.7213339 L29.0111308,33.1406766 L26.2681982,32.3498713 C25.721371,32.1932833 25.4087285,31.6448676 25.5259397,31.0966903 C25.5649309,30.9401023 25.6431509,30.7835143 25.7603622,30.6660137 L30.4873264,26.3973809 C31.0626837,27.3476344 31.5203542,28.415865 31.835612,29.5758559 L34.1070845,26.709127 C33.7404725,25.8513487 33.3006333,25.0276527 32.792084,24.2435209 Z" id="wheel" fill="#326DE6" fill-rule="nonzero"></path>
            </g>
        </g>
    </g>
</svg>
